<svg width="370" height="101" viewBox="0 0 370 101" fill="none" xmlns="http://www.w3.org/2000/svg">
<path d="M20.2273 31.0909H25.2727L37.1364 60.0682H37.5455L49.4091 31.0909H54.4545V66H50.5V39.4773H50.1591L39.25 66H35.4318L24.5227 39.4773H24.1818V66H20.2273V31.0909ZM69.2713 66L59.7259 31.0909H64.0213L71.3168 59.5227H71.6577L79.0895 31.0909H83.8622L91.294 59.5227H91.6349L98.9304 31.0909H103.226L93.6804 66H89.3168L81.6122 38.1818H81.3395L73.6349 66H69.2713ZM106.584 34.8409V31.0909H132.766V34.8409H121.788V66H117.561V34.8409H106.584ZM158.381 39.8182C158.176 38.0909 157.347 36.75 155.892 35.7955C154.438 34.8409 152.653 34.3636 150.54 34.3636C148.994 34.3636 147.642 34.6136 146.483 35.1136C145.335 35.6136 144.438 36.3011 143.79 37.1761C143.153 38.0511 142.835 39.0455 142.835 40.1591C142.835 41.0909 143.057 41.892 143.5 42.5625C143.955 43.2216 144.534 43.7727 145.239 44.2159C145.943 44.6477 146.682 45.0057 147.455 45.2898C148.227 45.5625 148.938 45.7841 149.585 45.9545L153.131 46.9091C154.04 47.1477 155.051 47.4773 156.165 47.8977C157.29 48.3182 158.364 48.892 159.386 49.6193C160.42 50.3352 161.273 51.2557 161.943 52.3807C162.614 53.5057 162.949 54.8864 162.949 56.5227C162.949 58.4091 162.455 60.1136 161.466 61.6364C160.489 63.1591 159.057 64.3693 157.17 65.267C155.295 66.1648 153.017 66.6136 150.335 66.6136C147.835 66.6136 145.67 66.2102 143.841 65.4034C142.023 64.5966 140.591 63.4716 139.545 62.0284C138.511 60.5852 137.926 58.9091 137.79 57H142.153C142.267 58.3182 142.71 59.4091 143.483 60.2727C144.267 61.125 145.256 61.7614 146.449 62.1818C147.653 62.5909 148.949 62.7955 150.335 62.7955C151.949 62.7955 153.398 62.5341 154.682 62.0114C155.966 61.4773 156.983 60.7386 157.733 59.7955C158.483 58.8409 158.858 57.7273 158.858 56.4545C158.858 55.2955 158.534 54.3523 157.886 53.625C157.239 52.8977 156.386 52.3068 155.33 51.8523C154.273 51.3977 153.131 51 151.903 50.6591L147.608 49.4318C144.881 48.6477 142.722 47.5284 141.131 46.0739C139.54 44.6193 138.744 42.7159 138.744 40.3636C138.744 38.4091 139.273 36.7045 140.33 35.25C141.398 33.7841 142.83 32.6477 144.625 31.8409C146.432 31.0227 148.449 30.6136 150.676 30.6136C152.926 30.6136 154.926 31.017 156.676 31.8239C158.426 32.6193 159.813 33.7102 160.835 35.0966C161.869 36.483 162.415 38.0568 162.472 39.8182H158.381ZM202.49 39.8182C202.286 38.0909 201.456 36.75 200.001 35.7955C198.547 34.8409 196.763 34.3636 194.649 34.3636C193.104 34.3636 191.751 34.6136 190.592 35.1136C189.445 35.6136 188.547 36.3011 187.899 37.1761C187.263 38.0511 186.945 39.0455 186.945 40.1591C186.945 41.0909 187.166 41.892 187.609 42.5625C188.064 43.2216 188.643 43.7727 189.348 44.2159C190.053 44.6477 190.791 45.0057 191.564 45.2898C192.337 45.5625 193.047 45.7841 193.695 45.9545L197.24 46.9091C198.149 47.1477 199.161 47.4773 200.274 47.8977C201.399 48.3182 202.473 48.892 203.496 49.6193C204.53 50.3352 205.382 51.2557 206.053 52.3807C206.723 53.5057 207.058 54.8864 207.058 56.5227C207.058 58.4091 206.564 60.1136 205.575 61.6364C204.598 63.1591 203.166 64.3693 201.28 65.267C199.405 66.1648 197.126 66.6136 194.445 66.6136C191.945 66.6136 189.78 66.2102 187.95 65.4034C186.132 64.5966 184.7 63.4716 183.655 62.0284C182.621 60.5852 182.036 58.9091 181.899 57H186.263C186.376 58.3182 186.82 59.4091 187.592 60.2727C188.376 61.125 189.365 61.7614 190.558 62.1818C191.763 62.5909 193.058 62.7955 194.445 62.7955C196.058 62.7955 197.507 62.5341 198.791 62.0114C200.075 61.4773 201.092 60.7386 201.842 59.7955C202.592 58.8409 202.967 57.7273 202.967 56.4545C202.967 55.2955 202.643 54.3523 201.996 53.625C201.348 52.8977 200.496 52.3068 199.439 51.8523C198.382 51.3977 197.24 51 196.013 50.6591L191.717 49.4318C188.99 48.6477 186.831 47.5284 185.24 46.0739C183.649 44.6193 182.854 42.7159 182.854 40.3636C182.854 38.4091 183.382 36.7045 184.439 35.25C185.507 33.7841 186.939 32.6477 188.734 31.8409C190.541 31.0227 192.558 30.6136 194.786 30.6136C197.036 30.6136 199.036 31.017 200.786 31.8239C202.536 32.6193 203.922 33.7102 204.945 35.0966C205.979 36.483 206.524 38.0568 206.581 39.8182H202.49ZM224.849 39.8182V43.2273H211.281V39.8182H224.849ZM215.236 33.5455H219.259V58.5C219.259 59.6364 219.423 60.4886 219.753 61.0568C220.094 61.6136 220.526 61.9886 221.048 62.1818C221.582 62.3636 222.145 62.4545 222.736 62.4545C223.179 62.4545 223.543 62.4318 223.827 62.3864C224.111 62.3295 224.338 62.2841 224.509 62.25L225.327 65.8636C225.054 65.9659 224.673 66.0682 224.185 66.1705C223.696 66.2841 223.077 66.3409 222.327 66.3409C221.19 66.3409 220.077 66.0966 218.986 65.608C217.906 65.1193 217.009 64.375 216.293 63.375C215.588 62.375 215.236 61.1136 215.236 59.5909V33.5455ZM247.401 55.2955V39.8182H251.423V66H247.401V61.5682H247.128C246.514 62.8977 245.56 64.0284 244.264 64.9602C242.969 65.8807 241.332 66.3409 239.355 66.3409C237.719 66.3409 236.264 65.983 234.991 65.267C233.719 64.5398 232.719 63.4489 231.991 61.9943C231.264 60.5284 230.901 58.6818 230.901 56.4545V39.8182H234.923V56.1818C234.923 58.0909 235.457 59.6136 236.526 60.75C237.605 61.8864 238.98 62.4545 240.651 62.4545C241.651 62.4545 242.668 62.1989 243.702 61.6875C244.747 61.1761 245.622 60.392 246.327 59.3352C247.043 58.2784 247.401 56.9318 247.401 55.2955ZM268.678 66.5455C266.496 66.5455 264.57 65.9943 262.899 64.892C261.229 63.7784 259.922 62.2102 258.979 60.1875C258.036 58.1534 257.564 55.75 257.564 52.9773C257.564 50.2273 258.036 47.8409 258.979 45.8182C259.922 43.7955 261.234 42.233 262.916 41.1307C264.598 40.0284 266.541 39.4773 268.746 39.4773C270.45 39.4773 271.797 39.7614 272.786 40.3295C273.786 40.8864 274.547 41.5227 275.07 42.2386C275.604 42.9432 276.018 43.5227 276.314 43.9773H276.655V31.0909H280.678V66H276.791V61.9773H276.314C276.018 62.4545 275.598 63.0568 275.053 63.7841C274.507 64.5 273.729 65.142 272.717 65.7102C271.706 66.267 270.359 66.5455 268.678 66.5455ZM269.223 62.9318C270.837 62.9318 272.2 62.5114 273.314 61.6705C274.428 60.8182 275.274 59.642 275.854 58.142C276.433 56.6307 276.723 54.8864 276.723 52.9091C276.723 50.9545 276.439 49.2443 275.871 47.7784C275.303 46.3011 274.462 45.1534 273.348 44.3352C272.234 43.5057 270.859 43.0909 269.223 43.0909C267.518 43.0909 266.098 43.5284 264.962 44.4034C263.837 45.267 262.99 46.4432 262.422 47.9318C261.865 49.4091 261.587 51.0682 261.587 52.9091C261.587 54.7727 261.871 56.4659 262.439 57.9886C263.018 59.5 263.871 60.7045 264.996 61.6023C266.132 62.4886 267.541 62.9318 269.223 62.9318ZM288.604 66V39.8182H292.626V66H288.604ZM290.649 35.4545C289.865 35.4545 289.189 35.1875 288.621 34.6534C288.064 34.1193 287.786 33.4773 287.786 32.7273C287.786 31.9773 288.064 31.3352 288.621 30.8011C289.189 30.267 289.865 30 290.649 30C291.433 30 292.104 30.267 292.661 30.8011C293.229 31.3352 293.513 31.9773 293.513 32.7273C293.513 33.4773 293.229 34.1193 292.661 34.6534C292.104 35.1875 291.433 35.4545 290.649 35.4545ZM310.631 66.5455C308.267 66.5455 306.193 65.983 304.409 64.858C302.636 63.733 301.25 62.1591 300.25 60.1364C299.261 58.1136 298.767 55.75 298.767 53.0455C298.767 50.3182 299.261 47.9375 300.25 45.9034C301.25 43.8693 302.636 42.2898 304.409 41.1648C306.193 40.0398 308.267 39.4773 310.631 39.4773C312.994 39.4773 315.063 40.0398 316.835 41.1648C318.619 42.2898 320.006 43.8693 320.994 45.9034C321.994 47.9375 322.494 50.3182 322.494 53.0455C322.494 55.75 321.994 58.1136 320.994 60.1364C320.006 62.1591 318.619 63.733 316.835 64.858C315.063 65.983 312.994 66.5455 310.631 66.5455ZM310.631 62.9318C312.426 62.9318 313.903 62.4716 315.062 61.5511C316.222 60.6307 317.08 59.4205 317.636 57.9205C318.193 56.4205 318.472 54.7955 318.472 53.0455C318.472 51.2955 318.193 49.6648 317.636 48.1534C317.08 46.642 316.222 45.4205 315.062 44.4886C313.903 43.5568 312.426 43.0909 310.631 43.0909C308.835 43.0909 307.358 43.5568 306.199 44.4886C305.04 45.4205 304.182 46.642 303.625 48.1534C303.068 49.6648 302.79 51.2955 302.79 53.0455C302.79 54.7955 303.068 56.4205 303.625 57.9205C304.182 59.4205 305.04 60.6307 306.199 61.5511C307.358 62.4716 308.835 62.9318 310.631 62.9318Z" fill="#D9D9D9"/>
<path d="M338.534 15.9091V17.6136H331.75V15.9091H338.534ZM333.727 12.7727H335.739V25.25C335.739 25.8182 335.821 26.2443 335.986 26.5284C336.156 26.8068 336.372 26.9943 336.634 27.0909C336.901 27.1818 337.182 27.2273 337.477 27.2273C337.699 27.2273 337.881 27.2159 338.023 27.1932C338.165 27.1648 338.278 27.142 338.364 27.125L338.773 28.9318C338.636 28.983 338.446 29.0341 338.202 29.0852C337.957 29.142 337.648 29.1705 337.273 29.1705C336.705 29.1705 336.148 29.0483 335.602 28.804C335.063 28.5597 334.614 28.1875 334.256 27.6875C333.903 27.1875 333.727 26.5568 333.727 25.7955V12.7727ZM341.56 29V15.9091H343.503V17.9545H343.673C343.946 17.2557 344.386 16.7131 344.994 16.3267C345.602 15.9347 346.332 15.7386 347.185 15.7386C348.048 15.7386 348.767 15.9347 349.341 16.3267C349.92 16.7131 350.372 17.2557 350.696 17.9545H350.832C351.168 17.2784 351.67 16.7415 352.341 16.3438C353.011 15.9403 353.815 15.7386 354.753 15.7386C355.923 15.7386 356.881 16.1051 357.625 16.8381C358.369 17.5653 358.741 18.6989 358.741 20.2386V29H356.73V20.2386C356.73 19.2727 356.466 18.5824 355.938 18.1676C355.409 17.7528 354.787 17.5455 354.071 17.5455C353.151 17.5455 352.438 17.8239 351.932 18.3807C351.426 18.9318 351.173 19.6307 351.173 20.4773V29H349.128V20.0341C349.128 19.2898 348.886 18.6903 348.403 18.2358C347.92 17.7756 347.298 17.5455 346.537 17.5455C346.014 17.5455 345.526 17.6847 345.071 17.9631C344.622 18.2415 344.259 18.6278 343.98 19.1222C343.707 19.6108 343.571 20.1761 343.571 20.8182V29H341.56Z" fill="#D9D9D9"/>
</svg>
