<svg width="376" height="1269" viewBox="0 0 376 1269" fill="none" xmlns="http://www.w3.org/2000/svg">
<path d="M204 83.5L194 78.7265V90.2735L204 85.5V83.5ZM197.036 85.5H199.06V83.5H197.036V85.5ZM201.083 85.5H203.107V83.5H201.083V85.5ZM205.131 85.5H207.155V83.5H205.131V85.5ZM209.179 85.5H211.202V83.5H209.179V85.5ZM213.226 85.5H215.25V83.5H213.226V85.5ZM217.274 85.5H219.298V83.5H217.274V85.5ZM221.321 85.5H223.345V83.5H221.321V85.5ZM225.369 85.5H227.393V83.5H225.369V85.5ZM229.417 85.5H231.44V83.5H229.417V85.5ZM233.464 85.5H235.488V83.5H233.464V85.5ZM237.512 85.5H239.536V83.5H237.512V85.5ZM241.56 85.5H243.583V83.5H241.56V85.5ZM245.607 85.5H247.631V83.5H245.607V85.5ZM249.655 85.5H251.679V83.5H249.655V85.5ZM253.702 85.5H255.726V83.5H253.702V85.5ZM257.75 85.5H259.774V83.5H257.75V85.5ZM261.798 85.5H263.821V83.5H261.798V85.5ZM265.845 85.5H267.869V83.5H265.845V85.5ZM269.893 85.5H271.917V83.5H269.893V85.5ZM273.941 85.5H275.964V83.5H273.941V85.5ZM277.988 85.5H279V83.5H277.988V85.5Z" fill="black"/>
<line x1="278" y1="229" x2="278" y2="85" stroke="black" stroke-width="2" stroke-dasharray="2 2"/>
<line x1="118" y1="446" x2="118" y2="302" stroke="black" stroke-width="2" stroke-dasharray="2 2"/>
<line x1="121" y1="888" x2="121" y2="739" stroke="black" stroke-width="2" stroke-dasharray="2 2"/>
<line x1="279" y1="664" x2="279" y2="508" stroke="black" stroke-width="2" stroke-dasharray="2 2"/>
<path d="M282.5 1107L288.274 1097H276.726L282.5 1107ZM283.5 1104V1102H281.5V1104H283.5ZM283.5 1100V1098H281.5V1100H283.5ZM283.5 1096V1094H281.5V1096H283.5ZM283.5 1092V1090H281.5V1092H283.5ZM283.5 1088V1086H281.5V1088H283.5ZM283.5 1084V1082H281.5V1084H283.5ZM283.5 1080V1078H281.5V1080H283.5ZM283.5 1076V1074H281.5V1076H283.5ZM283.5 1072V1070H281.5V1072H283.5ZM283.5 1068V1066H281.5V1068H283.5ZM283.5 1064V1062H281.5V1064H283.5ZM283.5 1060V1058H281.5V1060H283.5ZM283.5 1056V1054H281.5V1056H283.5ZM283.5 1052V1050H281.5V1052H283.5ZM283.5 1048V1046H281.5V1048H283.5ZM283.5 1044V1042H281.5V1044H283.5ZM283.5 1040V1038H281.5V1040H283.5ZM283.5 1036V1034H281.5V1036H283.5ZM283.5 1032V1030H281.5V1032H283.5ZM283.5 1028V1026H281.5V1028H283.5ZM283.5 1024V1022H281.5V1024H283.5ZM283.5 1020V1018H281.5V1020H283.5ZM283.5 1016V1014H281.5V1016H283.5ZM283.5 1012V1010H281.5V1012H283.5ZM283.5 1008V1006H281.5V1008H283.5ZM283.5 1004V1002H281.5V1004H283.5ZM283.5 1000V998H281.5V1000H283.5ZM283.5 996V994H281.5V996H283.5ZM283.5 992V990H281.5V992H283.5ZM283.5 988V986H281.5V988H283.5ZM283.5 984V982H281.5V984H283.5ZM283.5 980V978H281.5V980H283.5ZM283.5 976V974H281.5V976H283.5ZM283.5 972V970H281.5V972H283.5ZM283.5 968V966H281.5V968H283.5ZM283.5 964V963H281.5V964H283.5Z" fill="black"/>
<line x1="118" y1="301" x2="203" y2="301" stroke="black" stroke-width="2" stroke-dasharray="2 2"/>
<line x1="196" y1="508" x2="279" y2="508" stroke="black" stroke-width="2" stroke-dasharray="2 2"/>
<line x1="121" y1="738" x2="205" y2="738" stroke="black" stroke-width="2" stroke-dasharray="2 2"/>
<line x1="198" y1="962" x2="283" y2="962" stroke="black" stroke-width="2" stroke-dasharray="2 2"/>
<circle cx="121" cy="514" r="75" fill="#D9D9D9"/>
<path d="M84.1143 494L80.1371 479.455H81.9268L84.9666 491.301H85.1087L88.2053 479.455H90.1939L93.2905 491.301H93.4325L96.4723 479.455H98.2621L94.2848 494H92.4666L89.2564 482.409H89.1428L85.9325 494H84.1143ZM103.617 498.318C102.808 498.318 102.112 498.214 101.529 498.006C100.947 497.802 100.461 497.532 100.073 497.196C99.6896 496.865 99.3842 496.509 99.157 496.131L100.492 495.193C100.644 495.392 100.835 495.619 101.067 495.875C101.299 496.135 101.617 496.36 102.019 496.55C102.426 496.744 102.959 496.841 103.617 496.841C104.498 496.841 105.225 496.628 105.798 496.202C106.371 495.776 106.657 495.108 106.657 494.199V491.983H106.515C106.392 492.182 106.217 492.428 105.989 492.722C105.767 493.01 105.445 493.268 105.023 493.496C104.607 493.718 104.043 493.83 103.333 493.83C102.452 493.83 101.662 493.621 100.961 493.205C100.265 492.788 99.7133 492.182 99.3061 491.386C98.9036 490.591 98.7024 489.625 98.7024 488.489C98.7024 487.371 98.8989 486.398 99.2919 485.57C99.6849 484.736 100.232 484.092 100.933 483.638C101.633 483.179 102.443 482.949 103.362 482.949C104.072 482.949 104.635 483.067 105.052 483.304C105.473 483.536 105.795 483.801 106.018 484.099C106.245 484.393 106.42 484.634 106.543 484.824H106.714V483.091H108.333V494.312C108.333 495.25 108.12 496.012 107.694 496.599C107.272 497.191 106.704 497.625 105.989 497.899C105.279 498.179 104.488 498.318 103.617 498.318ZM103.56 492.324C104.233 492.324 104.801 492.17 105.265 491.862C105.729 491.554 106.082 491.112 106.323 490.534C106.565 489.956 106.685 489.265 106.685 488.46C106.685 487.674 106.567 486.981 106.33 486.379C106.094 485.778 105.743 485.307 105.279 484.966C104.815 484.625 104.242 484.455 103.56 484.455C102.85 484.455 102.258 484.634 101.785 484.994C101.316 485.354 100.963 485.837 100.727 486.443C100.495 487.049 100.379 487.722 100.379 488.46C100.379 489.218 100.497 489.888 100.734 490.47C100.975 491.048 101.33 491.502 101.799 491.834C102.272 492.161 102.86 492.324 103.56 492.324ZM111.401 494V483.091H113.021V484.739H113.134C113.333 484.199 113.693 483.761 114.214 483.425C114.735 483.089 115.322 482.92 115.975 482.92C116.098 482.92 116.252 482.923 116.437 482.928C116.621 482.932 116.761 482.939 116.856 482.949V484.653C116.799 484.639 116.669 484.618 116.465 484.589C116.266 484.556 116.056 484.54 115.833 484.54C115.303 484.54 114.829 484.651 114.413 484.874C114.001 485.091 113.674 485.394 113.433 485.783C113.196 486.166 113.077 486.604 113.077 487.097V494H111.401ZM122.053 494.256C121.362 494.256 120.734 494.125 120.171 493.865C119.607 493.6 119.16 493.219 118.828 492.722C118.497 492.22 118.331 491.614 118.331 490.903C118.331 490.278 118.454 489.772 118.701 489.384C118.947 488.991 119.276 488.683 119.688 488.46C120.1 488.238 120.554 488.072 121.051 487.963C121.553 487.849 122.058 487.759 122.564 487.693C123.227 487.608 123.765 487.544 124.176 487.501C124.593 487.454 124.896 487.376 125.086 487.267C125.28 487.158 125.377 486.969 125.377 486.699V486.642C125.377 485.941 125.185 485.397 124.801 485.009C124.423 484.62 123.847 484.426 123.076 484.426C122.275 484.426 121.648 484.601 121.194 484.952C120.739 485.302 120.419 485.676 120.235 486.074L118.644 485.506C118.928 484.843 119.307 484.327 119.78 483.957C120.258 483.583 120.779 483.323 121.343 483.176C121.911 483.025 122.47 482.949 123.019 482.949C123.369 482.949 123.772 482.991 124.226 483.077C124.685 483.157 125.128 483.325 125.554 483.581C125.985 483.837 126.343 484.223 126.627 484.739C126.911 485.255 127.053 485.946 127.053 486.812V494H125.377V492.523H125.292C125.178 492.759 124.989 493.013 124.723 493.283C124.458 493.553 124.105 493.782 123.665 493.972C123.225 494.161 122.687 494.256 122.053 494.256ZM122.309 492.75C122.971 492.75 123.53 492.62 123.985 492.359C124.444 492.099 124.79 491.763 125.022 491.351C125.258 490.939 125.377 490.506 125.377 490.051V488.517C125.306 488.602 125.15 488.68 124.908 488.751C124.671 488.818 124.397 488.877 124.084 488.929C123.776 488.976 123.476 489.019 123.182 489.057C122.893 489.09 122.659 489.118 122.479 489.142C122.043 489.199 121.636 489.291 121.257 489.419C120.883 489.542 120.58 489.729 120.348 489.98C120.121 490.226 120.007 490.562 120.007 490.989C120.007 491.571 120.223 492.011 120.654 492.31C121.089 492.603 121.641 492.75 122.309 492.75ZM131.788 487.438V494H130.112V483.091H131.732V484.795H131.874C132.129 484.241 132.518 483.796 133.038 483.46C133.559 483.119 134.232 482.949 135.055 482.949C135.794 482.949 136.44 483.1 136.994 483.403C137.548 483.702 137.979 484.156 138.287 484.767C138.595 485.373 138.749 486.14 138.749 487.068V494H137.072V487.182C137.072 486.325 136.85 485.657 136.405 485.179C135.96 484.696 135.349 484.455 134.572 484.455C134.037 484.455 133.559 484.571 133.138 484.803C132.721 485.035 132.392 485.373 132.151 485.818C131.909 486.263 131.788 486.803 131.788 487.438ZM141.811 494V483.091H143.488V494H141.811ZM142.664 481.273C142.337 481.273 142.055 481.161 141.819 480.939C141.587 480.716 141.471 480.449 141.471 480.136C141.471 479.824 141.587 479.556 141.819 479.334C142.055 479.111 142.337 479 142.664 479C142.99 479 143.27 479.111 143.502 479.334C143.739 479.556 143.857 479.824 143.857 480.136C143.857 480.449 143.739 480.716 143.502 480.939C143.27 481.161 142.99 481.273 142.664 481.273ZM151.131 494.227C150.08 494.227 149.174 493.995 148.411 493.531C147.654 493.062 147.069 492.409 146.657 491.571C146.25 490.728 146.046 489.748 146.046 488.631C146.046 487.513 146.25 486.528 146.657 485.676C147.069 484.819 147.642 484.152 148.376 483.673C149.114 483.19 149.976 482.949 150.961 482.949C151.529 482.949 152.09 483.044 152.644 483.233C153.198 483.422 153.702 483.73 154.157 484.156C154.612 484.578 154.974 485.136 155.244 485.832C155.513 486.528 155.648 487.385 155.648 488.403V489.114H147.239V487.665H153.944C153.944 487.049 153.821 486.5 153.575 486.017C153.333 485.534 152.987 485.153 152.538 484.874C152.093 484.594 151.567 484.455 150.961 484.455C150.293 484.455 149.716 484.62 149.228 484.952C148.745 485.278 148.373 485.705 148.113 486.23C147.853 486.756 147.722 487.319 147.722 487.92V488.886C147.722 489.71 147.864 490.409 148.148 490.982C148.437 491.55 148.837 491.983 149.349 492.281C149.86 492.575 150.454 492.722 151.131 492.722C151.572 492.722 151.969 492.66 152.325 492.537C152.684 492.409 152.995 492.22 153.255 491.969C153.515 491.713 153.717 491.396 153.859 491.017L155.478 491.472C155.308 492.021 155.021 492.504 154.619 492.92C154.216 493.332 153.719 493.654 153.127 493.886C152.535 494.114 151.87 494.227 151.131 494.227ZM72.6708 518V507.091H74.2901V508.795H74.4322C74.6594 508.213 75.0264 507.761 75.533 507.439C76.0397 507.112 76.6481 506.949 77.3583 506.949C78.078 506.949 78.677 507.112 79.1552 507.439C79.6381 507.761 80.0146 508.213 80.2844 508.795H80.3981C80.6774 508.232 81.0965 507.785 81.6552 507.453C82.2139 507.117 82.8839 506.949 83.6651 506.949C84.6405 506.949 85.4383 507.254 86.0586 507.865C86.6789 508.471 86.989 509.416 86.989 510.699V518H85.3129V510.699C85.3129 509.894 85.0927 509.319 84.6523 508.973C84.212 508.627 83.6935 508.455 83.0969 508.455C82.3299 508.455 81.7357 508.687 81.3143 509.151C80.8929 509.61 80.6822 510.192 80.6822 510.898V518H78.9776V510.528C78.9776 509.908 78.7764 509.409 78.3739 509.03C77.9715 508.646 77.453 508.455 76.8185 508.455C76.3829 508.455 75.9757 508.571 75.5969 508.803C75.2229 509.035 74.9199 509.357 74.6879 509.768C74.4606 510.176 74.3469 510.647 74.3469 511.182V518H72.6708ZM94.4854 518.227C93.5006 518.227 92.6365 517.993 91.8931 517.524C91.1545 517.055 90.5768 516.4 90.1602 515.557C89.7482 514.714 89.5423 513.729 89.5423 512.602C89.5423 511.466 89.7482 510.474 90.1602 509.626C90.5768 508.779 91.1545 508.121 91.8931 507.652C92.6365 507.183 93.5006 506.949 94.4854 506.949C95.4703 506.949 96.332 507.183 97.0707 507.652C97.814 508.121 98.3917 508.779 98.8036 509.626C99.2203 510.474 99.4286 511.466 99.4286 512.602C99.4286 513.729 99.2203 514.714 98.8036 515.557C98.3917 516.4 97.814 517.055 97.0707 517.524C96.332 517.993 95.4703 518.227 94.4854 518.227ZM94.4854 516.722C95.2335 516.722 95.8491 516.53 96.332 516.146C96.815 515.763 97.1725 515.259 97.4045 514.634C97.6365 514.009 97.7525 513.331 97.7525 512.602C97.7525 511.873 97.6365 511.194 97.4045 510.564C97.1725 509.934 96.815 509.425 96.332 509.037C95.8491 508.649 95.2335 508.455 94.4854 508.455C93.7373 508.455 93.1218 508.649 92.6388 509.037C92.1559 509.425 91.7984 509.934 91.5664 510.564C91.3344 511.194 91.2184 511.873 91.2184 512.602C91.2184 513.331 91.3344 514.009 91.5664 514.634C91.7984 515.259 92.1559 515.763 92.6388 516.146C93.1218 516.53 93.7373 516.722 94.4854 516.722ZM106.107 518.227C105.197 518.227 104.395 517.998 103.699 517.538C103.003 517.074 102.458 516.421 102.065 515.578C101.672 514.731 101.476 513.729 101.476 512.574C101.476 511.428 101.672 510.434 102.065 509.591C102.458 508.748 103.005 508.097 103.706 507.638C104.407 507.179 105.216 506.949 106.135 506.949C106.845 506.949 107.406 507.067 107.818 507.304C108.235 507.536 108.552 507.801 108.77 508.099C108.992 508.393 109.165 508.634 109.288 508.824H109.43V503.455H111.107V518H109.487V516.324H109.288C109.165 516.523 108.99 516.774 108.763 517.077C108.536 517.375 108.211 517.643 107.79 517.879C107.368 518.111 106.807 518.227 106.107 518.227ZM106.334 516.722C107.006 516.722 107.574 516.546 108.038 516.196C108.502 515.841 108.855 515.351 109.097 514.726C109.338 514.096 109.459 513.369 109.459 512.545C109.459 511.731 109.34 511.018 109.104 510.408C108.867 509.792 108.517 509.314 108.053 508.973C107.589 508.627 107.016 508.455 106.334 508.455C105.624 508.455 105.032 508.637 104.558 509.001C104.089 509.361 103.737 509.851 103.5 510.472C103.268 511.087 103.152 511.778 103.152 512.545C103.152 513.322 103.27 514.027 103.507 514.662C103.749 515.292 104.104 515.794 104.572 516.168C105.046 516.537 105.633 516.722 106.334 516.722ZM118.983 518.227C117.932 518.227 117.025 517.995 116.263 517.531C115.505 517.062 114.92 516.409 114.509 515.571C114.101 514.728 113.898 513.748 113.898 512.631C113.898 511.513 114.101 510.528 114.509 509.676C114.92 508.819 115.493 508.152 116.227 507.673C116.966 507.19 117.828 506.949 118.812 506.949C119.381 506.949 119.942 507.044 120.496 507.233C121.05 507.422 121.554 507.73 122.009 508.156C122.463 508.578 122.825 509.136 123.095 509.832C123.365 510.528 123.5 511.385 123.5 512.403V513.114H115.091V511.665H121.795C121.795 511.049 121.672 510.5 121.426 510.017C121.185 509.534 120.839 509.153 120.389 508.874C119.944 508.594 119.419 508.455 118.812 508.455C118.145 508.455 117.567 508.62 117.08 508.952C116.597 509.278 116.225 509.705 115.964 510.23C115.704 510.756 115.574 511.319 115.574 511.92V512.886C115.574 513.71 115.716 514.409 116 514.982C116.289 515.55 116.689 515.983 117.2 516.281C117.712 516.575 118.306 516.722 118.983 516.722C119.423 516.722 119.821 516.66 120.176 516.537C120.536 516.409 120.846 516.22 121.107 515.969C121.367 515.713 121.568 515.396 121.71 515.017L123.33 515.472C123.159 516.021 122.873 516.504 122.47 516.92C122.068 517.332 121.571 517.654 120.979 517.886C120.387 518.114 119.722 518.227 118.983 518.227ZM127.726 503.455V518H126.05V503.455H127.726ZM137.671 513.54V507.091H139.347V518H137.671V516.153H137.557C137.301 516.707 136.904 517.179 136.364 517.567C135.824 517.95 135.142 518.142 134.319 518.142C133.637 518.142 133.031 517.993 132.5 517.695C131.97 517.392 131.553 516.937 131.25 516.331C130.947 515.72 130.796 514.951 130.796 514.023V507.091H132.472V513.909C132.472 514.705 132.694 515.339 133.14 515.812C133.589 516.286 134.162 516.523 134.858 516.523C135.275 516.523 135.699 516.416 136.13 516.203C136.565 515.99 136.93 515.663 137.223 515.223C137.522 514.783 137.671 514.222 137.671 513.54ZM152.161 518.227C151.252 518.227 150.45 517.998 149.754 517.538C149.058 517.074 148.513 516.421 148.12 515.578C147.727 514.731 147.531 513.729 147.531 512.574C147.531 511.428 147.727 510.434 148.12 509.591C148.513 508.748 149.06 508.097 149.761 507.638C150.461 507.179 151.271 506.949 152.19 506.949C152.9 506.949 153.461 507.067 153.873 507.304C154.29 507.536 154.607 507.801 154.825 508.099C155.047 508.393 155.22 508.634 155.343 508.824H155.485V503.455H157.161V518H155.542V516.324H155.343C155.22 516.523 155.045 516.774 154.817 517.077C154.59 517.375 154.266 517.643 153.844 517.879C153.423 518.111 152.862 518.227 152.161 518.227ZM152.388 516.722C153.061 516.722 153.629 516.546 154.093 516.196C154.557 515.841 154.91 515.351 155.151 514.726C155.393 514.096 155.513 513.369 155.513 512.545C155.513 511.731 155.395 511.018 155.158 510.408C154.922 509.792 154.571 509.314 154.107 508.973C153.643 508.627 153.07 508.455 152.388 508.455C151.678 508.455 151.086 508.637 150.613 509.001C150.144 509.361 149.791 509.851 149.555 510.472C149.323 511.087 149.207 511.778 149.207 512.545C149.207 513.322 149.325 514.027 149.562 514.662C149.803 515.292 150.158 515.794 150.627 516.168C151.101 516.537 151.688 516.722 152.388 516.722ZM164.896 518.227C163.911 518.227 163.047 517.993 162.303 517.524C161.565 517.055 160.987 516.4 160.57 515.557C160.158 514.714 159.952 513.729 159.952 512.602C159.952 511.466 160.158 510.474 160.57 509.626C160.987 508.779 161.565 508.121 162.303 507.652C163.047 507.183 163.911 506.949 164.896 506.949C165.88 506.949 166.742 507.183 167.481 507.652C168.224 508.121 168.802 508.779 169.214 509.626C169.63 510.474 169.839 511.466 169.839 512.602C169.839 513.729 169.63 514.714 169.214 515.557C168.802 516.4 168.224 517.055 167.481 517.524C166.742 517.993 165.88 518.227 164.896 518.227ZM164.896 516.722C165.644 516.722 166.259 516.53 166.742 516.146C167.225 515.763 167.583 515.259 167.815 514.634C168.047 514.009 168.163 513.331 168.163 512.602C168.163 511.873 168.047 511.194 167.815 510.564C167.583 509.934 167.225 509.425 166.742 509.037C166.259 508.649 165.644 508.455 164.896 508.455C164.147 508.455 163.532 508.649 163.049 509.037C162.566 509.425 162.209 509.934 161.977 510.564C161.745 511.194 161.629 511.873 161.629 512.602C161.629 513.331 161.745 514.009 161.977 514.634C162.209 515.259 162.566 515.763 163.049 516.146C163.532 516.53 164.147 516.722 164.896 516.722ZM88.3038 542.227C87.3947 542.227 86.5922 541.998 85.8961 541.538C85.2001 541.074 84.6556 540.421 84.2626 539.578C83.8696 538.731 83.6731 537.729 83.6731 536.574C83.6731 535.428 83.8696 534.434 84.2626 533.591C84.6556 532.748 85.2025 532.097 85.9032 531.638C86.604 531.179 87.4136 530.949 88.3322 530.949C89.0424 530.949 89.6035 531.067 90.0154 531.304C90.4321 531.536 90.7493 531.801 90.9672 532.099C91.1897 532.393 91.3625 532.634 91.4856 532.824H91.6277V527.455H93.3038V542H91.6845V540.324H91.4856C91.3625 540.523 91.1873 540.774 90.96 541.077C90.7328 541.375 90.4084 541.643 89.987 541.879C89.5656 542.111 89.0046 542.227 88.3038 542.227ZM88.5311 540.722C89.2034 540.722 89.7716 540.546 90.2356 540.196C90.6996 539.841 91.0524 539.351 91.2939 538.726C91.5353 538.096 91.6561 537.369 91.6561 536.545C91.6561 535.731 91.5377 535.018 91.301 534.408C91.0642 533.792 90.7138 533.314 90.2498 532.973C89.7858 532.627 89.2129 532.455 88.5311 532.455C87.8208 532.455 87.229 532.637 86.7555 533.001C86.2868 533.361 85.934 533.851 85.6973 534.472C85.4653 535.087 85.3493 535.778 85.3493 536.545C85.3493 537.322 85.4676 538.027 85.7044 538.662C85.9458 539.292 86.301 539.794 86.7697 540.168C87.2432 540.537 87.8303 540.722 88.5311 540.722ZM96.6064 542V531.091H98.2257V532.739H98.3393C98.5382 532.199 98.898 531.761 99.4189 531.425C99.9397 531.089 100.527 530.92 101.18 530.92C101.303 530.92 101.457 530.923 101.642 530.928C101.827 530.932 101.966 530.939 102.061 530.949V532.653C102.004 532.639 101.874 532.618 101.67 532.589C101.471 532.556 101.261 532.54 101.038 532.54C100.508 532.54 100.034 532.651 99.6177 532.874C99.2058 533.091 98.8791 533.394 98.6376 533.783C98.4009 534.166 98.2825 534.604 98.2825 535.097V542H96.6064ZM110.923 537.54V531.091H112.599V542H110.923V540.153H110.809C110.553 540.707 110.156 541.179 109.616 541.567C109.076 541.95 108.394 542.142 107.57 542.142C106.889 542.142 106.283 541.993 105.752 541.695C105.222 541.392 104.805 540.937 104.502 540.331C104.199 539.72 104.048 538.951 104.048 538.023V531.091H105.724V537.909C105.724 538.705 105.946 539.339 106.392 539.812C106.841 540.286 107.414 540.523 108.11 540.523C108.527 540.523 108.951 540.416 109.382 540.203C109.817 539.99 110.182 539.663 110.475 539.223C110.774 538.783 110.923 538.222 110.923 537.54ZM117.231 538.023L117.203 535.949H117.544L122.317 531.091H124.39L119.305 536.233H119.163L117.231 538.023ZM115.669 542V527.455H117.345V542H115.669ZM122.601 542L118.339 536.602L119.532 535.438L124.731 542H122.601ZM129.758 542.256C129.067 542.256 128.439 542.125 127.876 541.865C127.312 541.6 126.865 541.219 126.534 540.722C126.202 540.22 126.036 539.614 126.036 538.903C126.036 538.278 126.16 537.772 126.406 537.384C126.652 536.991 126.981 536.683 127.393 536.46C127.805 536.238 128.259 536.072 128.757 535.963C129.258 535.849 129.763 535.759 130.269 535.693C130.932 535.608 131.47 535.544 131.882 535.501C132.298 535.454 132.601 535.376 132.791 535.267C132.985 535.158 133.082 534.969 133.082 534.699V534.642C133.082 533.941 132.89 533.397 132.507 533.009C132.128 532.62 131.552 532.426 130.781 532.426C129.981 532.426 129.353 532.601 128.899 532.952C128.444 533.302 128.124 533.676 127.94 534.074L126.349 533.506C126.633 532.843 127.012 532.327 127.485 531.957C127.963 531.583 128.484 531.323 129.048 531.176C129.616 531.025 130.175 530.949 130.724 530.949C131.074 530.949 131.477 530.991 131.931 531.077C132.391 531.157 132.833 531.325 133.259 531.581C133.69 531.837 134.048 532.223 134.332 532.739C134.616 533.255 134.758 533.946 134.758 534.812V542H133.082V540.523H132.997C132.883 540.759 132.694 541.013 132.428 541.283C132.163 541.553 131.811 541.782 131.37 541.972C130.93 542.161 130.392 542.256 129.758 542.256ZM130.014 540.75C130.677 540.75 131.235 540.62 131.69 540.359C132.149 540.099 132.495 539.763 132.727 539.351C132.963 538.939 133.082 538.506 133.082 538.051V536.517C133.011 536.602 132.855 536.68 132.613 536.751C132.376 536.818 132.102 536.877 131.789 536.929C131.481 536.976 131.181 537.019 130.887 537.057C130.598 537.09 130.364 537.118 130.184 537.142C129.749 537.199 129.341 537.291 128.963 537.419C128.588 537.542 128.285 537.729 128.053 537.98C127.826 538.226 127.713 538.562 127.713 538.989C127.713 539.571 127.928 540.011 128.359 540.31C128.794 540.603 129.346 540.75 130.014 540.75ZM137.817 542V531.091H139.437V532.739H139.55C139.749 532.199 140.109 531.761 140.63 531.425C141.151 531.089 141.738 530.92 142.391 530.92C142.514 530.92 142.668 530.923 142.853 530.928C143.037 530.932 143.177 530.939 143.272 530.949V532.653C143.215 532.639 143.085 532.618 142.881 532.589C142.682 532.556 142.472 532.54 142.249 532.54C141.719 532.54 141.245 532.651 140.829 532.874C140.417 533.091 140.09 533.394 139.849 533.783C139.612 534.166 139.493 534.604 139.493 535.097V542H137.817ZM146.821 538.023L146.793 535.949H147.134L151.906 531.091H153.98L148.895 536.233H148.753L146.821 538.023ZM145.259 542V527.455H146.935V542H145.259ZM152.191 542L147.929 536.602L149.122 535.438L154.321 542H152.191ZM156.138 542V531.091H157.814V542H156.138ZM156.99 529.273C156.663 529.273 156.381 529.161 156.145 528.939C155.913 528.716 155.797 528.449 155.797 528.136C155.797 527.824 155.913 527.556 156.145 527.334C156.381 527.111 156.663 527 156.99 527C157.317 527 157.596 527.111 157.828 527.334C158.065 527.556 158.183 527.824 158.183 528.136C158.183 528.449 158.065 528.716 157.828 528.939C157.596 529.161 157.317 529.273 156.99 529.273Z" fill="black"/>
<circle cx="119" cy="86" r="75" fill="#D9D9D9"/>
<path d="M80.5714 81V79.7216L88.4123 68.017H80.4862V66.4545H90.5146V67.733L82.6737 79.4375H90.5998V81H80.5714ZM95.0032 66.4545V81H93.3271V66.4545H95.0032ZM102.505 81.2273C101.52 81.2273 100.656 80.9929 99.9126 80.5241C99.174 80.0554 98.5964 79.3996 98.1797 78.5568C97.7678 77.714 97.5618 76.7292 97.5618 75.6023C97.5618 74.4659 97.7678 73.474 98.1797 72.6264C98.5964 71.7789 99.174 71.1207 99.9126 70.652C100.656 70.1832 101.52 69.9489 102.505 69.9489C103.49 69.9489 104.352 70.1832 105.09 70.652C105.834 71.1207 106.411 71.7789 106.823 72.6264C107.24 73.474 107.448 74.4659 107.448 75.6023C107.448 76.7292 107.24 77.714 106.823 78.5568C106.411 79.3996 105.834 80.0554 105.09 80.5241C104.352 80.9929 103.49 81.2273 102.505 81.2273ZM102.505 79.7216C103.253 79.7216 103.869 79.5298 104.352 79.1463C104.835 78.7628 105.192 78.2585 105.424 77.6335C105.656 77.0085 105.772 76.3314 105.772 75.6023C105.772 74.8731 105.656 74.1937 105.424 73.5639C105.192 72.9342 104.835 72.4252 104.352 72.0369C103.869 71.6487 103.253 71.4545 102.505 71.4545C101.757 71.4545 101.141 71.6487 100.658 72.0369C100.175 72.4252 99.8179 72.9342 99.5859 73.5639C99.3539 74.1937 99.2379 74.8731 99.2379 75.6023C99.2379 76.3314 99.3539 77.0085 99.5859 77.6335C99.8179 78.2585 100.175 78.7628 100.658 79.1463C101.141 79.5298 101.757 79.7216 102.505 79.7216ZM109.694 81V79.7216L115.887 71.767V71.6534H109.893V70.0909H118.047V71.4261L112.024 79.3239V79.4375H118.245V81H109.694ZM125.088 81.2273C124.037 81.2273 123.131 80.9953 122.368 80.5312C121.611 80.0625 121.026 79.4091 120.614 78.571C120.207 77.7282 120.003 76.7481 120.003 75.6307C120.003 74.5133 120.207 73.5284 120.614 72.6761C121.026 71.8191 121.599 71.1515 122.333 70.6733C123.071 70.1903 123.933 69.9489 124.918 69.9489C125.486 69.9489 126.047 70.0436 126.601 70.233C127.155 70.4223 127.659 70.7301 128.114 71.1562C128.569 71.5777 128.931 72.1364 129.201 72.8324C129.471 73.5284 129.605 74.3854 129.605 75.4034V76.1136H121.196V74.6648H127.901C127.901 74.0492 127.778 73.5 127.532 73.017C127.29 72.5341 126.944 72.1529 126.495 71.8736C126.05 71.5942 125.524 71.4545 124.918 71.4545C124.25 71.4545 123.673 71.6203 123.185 71.9517C122.702 72.2784 122.33 72.7045 122.07 73.2301C121.81 73.7557 121.679 74.3191 121.679 74.9205V75.8864C121.679 76.7102 121.821 77.4086 122.105 77.9815C122.394 78.5497 122.794 78.983 123.306 79.2812C123.817 79.5748 124.411 79.7216 125.088 79.7216C125.529 79.7216 125.926 79.66 126.282 79.5369C126.641 79.4091 126.952 79.2197 127.212 78.9688C127.472 78.7131 127.674 78.3958 127.816 78.017L129.435 78.4716C129.265 79.0208 128.978 79.5038 128.576 79.9205C128.173 80.3324 127.676 80.6544 127.084 80.8864C126.492 81.1136 125.827 81.2273 125.088 81.2273ZM133.831 74.4375V81H132.155V70.0909H133.775V71.7955H133.917C134.172 71.2415 134.56 70.7964 135.081 70.4602C135.602 70.1193 136.275 69.9489 137.098 69.9489C137.837 69.9489 138.483 70.1004 139.037 70.4034C139.591 70.7017 140.022 71.1562 140.33 71.767C140.638 72.3731 140.792 73.1402 140.792 74.0682V81H139.115V74.1818C139.115 73.3248 138.893 72.6572 138.448 72.179C138.003 71.696 137.392 71.4545 136.615 71.4545C136.08 71.4545 135.602 71.5705 135.181 71.8026C134.764 72.0346 134.435 72.3731 134.194 72.8182C133.952 73.2633 133.831 73.803 133.831 74.4375ZM143.854 81V70.0909H145.531V81H143.854ZM144.707 68.2727C144.38 68.2727 144.098 68.1615 143.862 67.9389C143.629 67.7164 143.513 67.4489 143.513 67.1364C143.513 66.8239 143.629 66.5563 143.862 66.3338C144.098 66.1113 144.38 66 144.707 66C145.033 66 145.313 66.1113 145.545 66.3338C145.781 66.5563 145.9 66.8239 145.9 67.1364C145.9 67.4489 145.781 67.7164 145.545 67.9389C145.313 68.1615 145.033 68.2727 144.707 68.2727ZM153.174 81.2273C152.123 81.2273 151.217 80.9953 150.454 80.5312C149.697 80.0625 149.112 79.4091 148.7 78.571C148.293 77.7282 148.089 76.7481 148.089 75.6307C148.089 74.5133 148.293 73.5284 148.7 72.6761C149.112 71.8191 149.685 71.1515 150.419 70.6733C151.157 70.1903 152.019 69.9489 153.004 69.9489C153.572 69.9489 154.133 70.0436 154.687 70.233C155.241 70.4223 155.745 70.7301 156.2 71.1562C156.654 71.5777 157.017 72.1364 157.287 72.8324C157.556 73.5284 157.691 74.3854 157.691 75.4034V76.1136H149.282V74.6648H155.987C155.987 74.0492 155.864 73.5 155.618 73.017C155.376 72.5341 155.03 72.1529 154.581 71.8736C154.136 71.5942 153.61 71.4545 153.004 71.4545C152.336 71.4545 151.759 71.6203 151.271 71.9517C150.788 72.2784 150.416 72.7045 150.156 73.2301C149.895 73.7557 149.765 74.3191 149.765 74.9205V75.8864C149.765 76.7102 149.907 77.4086 150.191 77.9815C150.48 78.5497 150.88 78.983 151.392 79.2812C151.903 79.5748 152.497 79.7216 153.174 79.7216C153.615 79.7216 154.012 79.66 154.368 79.5369C154.727 79.4091 155.038 79.2197 155.298 78.9688C155.558 78.7131 155.76 78.3958 155.902 78.017L157.521 78.4716C157.35 79.0208 157.064 79.5038 156.662 79.9205C156.259 80.3324 155.762 80.6544 155.17 80.8864C154.578 81.1136 153.913 81.2273 153.174 81.2273ZM64.5282 105V103.722L70.7214 95.767V95.6534H64.7271V94.0909H72.8805V95.4261L66.8578 103.324V103.438H73.0794V105H64.5282ZM78.8713 105.256C78.18 105.256 77.5526 105.125 76.9892 104.865C76.4257 104.6 75.9783 104.219 75.6468 103.722C75.3154 103.22 75.1497 102.614 75.1497 101.903C75.1497 101.278 75.2728 100.772 75.519 100.384C75.7652 99.9905 76.0943 99.6828 76.5062 99.4602C76.9181 99.2377 77.3727 99.072 77.8699 98.9631C78.3717 98.8494 78.876 98.7595 79.3826 98.6932C80.0455 98.608 80.5829 98.544 80.9949 98.5014C81.4115 98.4541 81.7145 98.3759 81.9039 98.267C82.0981 98.1581 82.1951 97.9687 82.1951 97.6989V97.642C82.1951 96.9413 82.0034 96.3968 81.6199 96.0085C81.2411 95.6203 80.6658 95.4261 79.894 95.4261C79.0938 95.4261 78.4664 95.6013 78.0119 95.9517C77.5574 96.3021 77.2377 96.6761 77.0531 97.0739L75.4622 96.5057C75.7463 95.8428 76.1251 95.3267 76.5985 94.9574C77.0768 94.5833 77.5976 94.3229 78.161 94.1761C78.7292 94.0246 79.2879 93.9489 79.8372 93.9489C80.1876 93.9489 80.59 93.9915 81.0446 94.0767C81.5038 94.1572 81.9466 94.3253 82.3727 94.581C82.8036 94.8366 83.161 95.2225 83.4451 95.7386C83.7292 96.2547 83.8713 96.946 83.8713 97.8125V105H82.1951V103.523H82.1099C81.9963 103.759 81.8069 104.013 81.5417 104.283C81.2766 104.553 80.9238 104.782 80.4835 104.972C80.0431 105.161 79.5057 105.256 78.8713 105.256ZM79.127 103.75C79.7898 103.75 80.3485 103.62 80.8031 103.359C81.2624 103.099 81.608 102.763 81.84 102.351C82.0768 101.939 82.1951 101.506 82.1951 101.051V99.517C82.1241 99.6023 81.9679 99.6804 81.7264 99.7514C81.4896 99.8177 81.215 99.8769 80.9025 99.929C80.5948 99.9763 80.2941 100.019 80.0005 100.057C79.7117 100.09 79.4773 100.118 79.2974 100.142C78.8618 100.199 78.4546 100.291 78.0758 100.419C77.7018 100.542 77.3987 100.729 77.1667 100.98C76.9395 101.226 76.8258 101.562 76.8258 101.989C76.8258 102.571 77.0413 103.011 77.4721 103.31C77.9077 103.603 78.4593 103.75 79.127 103.75ZM86.9306 105V94.0909H88.5499V95.7955H88.6919C88.9192 95.2131 89.2862 94.7609 89.7928 94.4389C90.2994 94.1122 90.9078 93.9489 91.6181 93.9489C92.3378 93.9489 92.9367 94.1122 93.415 94.4389C93.8979 94.7609 94.2743 95.2131 94.5442 95.7955H94.6578C94.9372 95.232 95.3562 94.7846 95.915 94.4531C96.4737 94.117 97.1436 93.9489 97.9249 93.9489C98.9003 93.9489 99.6981 94.2543 100.318 94.8651C100.939 95.4711 101.249 96.4157 101.249 97.6989V105H99.5726V97.6989C99.5726 96.8939 99.3525 96.3187 98.9121 95.973C98.4718 95.6274 97.9533 95.4545 97.3567 95.4545C96.5897 95.4545 95.9954 95.6866 95.574 96.1506C95.1526 96.6098 94.9419 97.1922 94.9419 97.8977V105H93.2374V97.5284C93.2374 96.9081 93.0362 96.4086 92.6337 96.0298C92.2312 95.6463 91.7128 95.4545 91.0783 95.4545C90.6427 95.4545 90.2355 95.5705 89.8567 95.8026C89.4827 96.0346 89.1796 96.3565 88.9476 96.7685C88.7203 97.1757 88.6067 97.6468 88.6067 98.1818V105H86.9306ZM108.745 105.227C107.76 105.227 106.896 104.993 106.153 104.524C105.414 104.055 104.837 103.4 104.42 102.557C104.008 101.714 103.802 100.729 103.802 99.6023C103.802 98.4659 104.008 97.474 104.42 96.6264C104.837 95.7789 105.414 95.1207 106.153 94.652C106.896 94.1832 107.76 93.9489 108.745 93.9489C109.73 93.9489 110.592 94.1832 111.33 94.652C112.074 95.1207 112.651 95.7789 113.063 96.6264C113.48 97.474 113.688 98.4659 113.688 99.6023C113.688 100.729 113.48 101.714 113.063 102.557C112.651 103.4 112.074 104.055 111.33 104.524C110.592 104.993 109.73 105.227 108.745 105.227ZM108.745 103.722C109.493 103.722 110.109 103.53 110.592 103.146C111.075 102.763 111.432 102.259 111.664 101.634C111.896 101.009 112.012 100.331 112.012 99.6023C112.012 98.8731 111.896 98.1937 111.664 97.5639C111.432 96.9342 111.075 96.4252 110.592 96.0369C110.109 95.6487 109.493 95.4545 108.745 95.4545C107.997 95.4545 107.382 95.6487 106.899 96.0369C106.416 96.4252 106.058 96.9342 105.826 97.5639C105.594 98.1937 105.478 98.8731 105.478 99.6023C105.478 100.331 105.594 101.009 105.826 101.634C106.058 102.259 106.416 102.763 106.899 103.146C107.382 103.53 107.997 103.722 108.745 103.722ZM118.347 105L115.024 94.0909H116.785L119.143 102.443H119.257L121.586 94.0909H123.376L125.677 102.415H125.791L128.149 94.0909H129.91L126.586 105H124.938L122.552 96.6193H122.382L119.995 105H118.347ZM132.126 105V94.0909H133.802V105H132.126ZM132.978 92.2727C132.651 92.2727 132.37 92.1615 132.133 91.9389C131.901 91.7164 131.785 91.4489 131.785 91.1364C131.785 90.8239 131.901 90.5563 132.133 90.3338C132.37 90.1113 132.651 90 132.978 90C133.305 90 133.584 90.1113 133.816 90.3338C134.053 90.5563 134.171 90.8239 134.171 91.1364C134.171 91.4489 134.053 91.7164 133.816 91.9389C133.584 92.1615 133.305 92.2727 132.978 92.2727ZM141.446 105.227C140.395 105.227 139.488 104.995 138.726 104.531C137.968 104.062 137.383 103.409 136.971 102.571C136.564 101.728 136.361 100.748 136.361 99.6307C136.361 98.5133 136.564 97.5284 136.971 96.6761C137.383 95.8191 137.956 95.1515 138.69 94.6733C139.429 94.1903 140.291 93.9489 141.275 93.9489C141.844 93.9489 142.405 94.0436 142.959 94.233C143.513 94.4223 144.017 94.7301 144.471 95.1562C144.926 95.5777 145.288 96.1364 145.558 96.8324C145.828 97.5284 145.963 98.3854 145.963 99.4034V100.114H137.554V98.6648H144.258C144.258 98.0492 144.135 97.5 143.889 97.017C143.648 96.5341 143.302 96.1529 142.852 95.8736C142.407 95.5942 141.881 95.4545 141.275 95.4545C140.608 95.4545 140.03 95.6203 139.542 95.9517C139.059 96.2784 138.688 96.7045 138.427 97.2301C138.167 97.7557 138.037 98.3191 138.037 98.9205V99.8864C138.037 100.71 138.179 101.409 138.463 101.982C138.752 102.55 139.152 102.983 139.663 103.281C140.175 103.575 140.769 103.722 141.446 103.722C141.886 103.722 142.284 103.66 142.639 103.537C142.999 103.409 143.309 103.22 143.569 102.969C143.83 102.713 144.031 102.396 144.173 102.017L145.792 102.472C145.622 103.021 145.336 103.504 144.933 103.92C144.531 104.332 144.033 104.654 143.442 104.886C142.85 105.114 142.184 105.227 141.446 105.227ZM150.189 98.4375V105H148.513V94.0909H150.132V95.7955H150.274C150.53 95.2415 150.918 94.7964 151.439 94.4602C151.96 94.1193 152.632 93.9489 153.456 93.9489C154.194 93.9489 154.841 94.1004 155.395 94.4034C155.949 94.7017 156.38 95.1562 156.687 95.767C156.995 96.3731 157.149 97.1402 157.149 98.0682V105H155.473V98.1818C155.473 97.3248 155.25 96.6572 154.805 96.179C154.36 95.696 153.749 95.4545 152.973 95.4545C152.438 95.4545 151.96 95.5705 151.538 95.8026C151.122 96.0346 150.792 96.3731 150.551 96.8182C150.309 97.2633 150.189 97.803 150.189 98.4375ZM160.212 105V94.0909H161.888V105H160.212ZM161.064 92.2727C160.737 92.2727 160.456 92.1615 160.219 91.9389C159.987 91.7164 159.871 91.4489 159.871 91.1364C159.871 90.8239 159.987 90.5563 160.219 90.3338C160.456 90.1113 160.737 90 161.064 90C161.391 90 161.67 90.1113 161.902 90.3338C162.139 90.5563 162.257 90.8239 162.257 91.1364C162.257 91.4489 162.139 91.7164 161.902 91.9389C161.67 92.1615 161.391 92.2727 161.064 92.2727ZM168.168 105.256C167.477 105.256 166.849 105.125 166.286 104.865C165.723 104.6 165.275 104.219 164.944 103.722C164.612 103.22 164.447 102.614 164.447 101.903C164.447 101.278 164.57 100.772 164.816 100.384C165.062 99.9905 165.391 99.6828 165.803 99.4602C166.215 99.2377 166.67 99.072 167.167 98.9631C167.669 98.8494 168.173 98.7595 168.68 98.6932C169.342 98.608 169.88 98.544 170.292 98.5014C170.708 98.4541 171.011 98.3759 171.201 98.267C171.395 98.1581 171.492 97.9687 171.492 97.6989V97.642C171.492 96.9413 171.3 96.3968 170.917 96.0085C170.538 95.6203 169.963 95.4261 169.191 95.4261C168.391 95.4261 167.763 95.6013 167.309 95.9517C166.854 96.3021 166.535 96.6761 166.35 97.0739L164.759 96.5057C165.043 95.8428 165.422 95.3267 165.895 94.9574C166.374 94.5833 166.894 94.3229 167.458 94.1761C168.026 94.0246 168.585 93.9489 169.134 93.9489C169.484 93.9489 169.887 93.9915 170.341 94.0767C170.801 94.1572 171.243 94.3253 171.67 94.581C172.1 94.8366 172.458 95.2225 172.742 95.7386C173.026 96.2547 173.168 96.946 173.168 97.8125V105H171.492V103.523H171.407C171.293 103.759 171.104 104.013 170.839 104.283C170.573 104.553 170.221 104.782 169.78 104.972C169.34 105.161 168.803 105.256 168.168 105.256ZM168.424 103.75C169.087 103.75 169.645 103.62 170.1 103.359C170.559 103.099 170.905 102.763 171.137 102.351C171.374 101.939 171.492 101.506 171.492 101.051V99.517C171.421 99.6023 171.265 99.6804 171.023 99.7514C170.787 99.8177 170.512 99.8769 170.199 99.929C169.892 99.9763 169.591 100.019 169.297 100.057C169.009 100.09 168.774 100.118 168.594 100.142C168.159 100.199 167.751 100.291 167.373 100.419C166.999 100.542 166.696 100.729 166.464 100.98C166.236 101.226 166.123 101.562 166.123 101.989C166.123 102.571 166.338 103.011 166.769 103.31C167.205 103.603 167.756 103.75 168.424 103.75Z" fill="black"/>
<circle cx="280" cy="302" r="75" fill="#D9D9D9"/>
<path d="M229.485 289.727C229.485 291.261 229.208 292.587 228.654 293.705C228.1 294.822 227.34 295.684 226.374 296.29C225.409 296.896 224.305 297.199 223.065 297.199C221.824 297.199 220.721 296.896 219.755 296.29C218.789 295.684 218.029 294.822 217.475 293.705C216.921 292.587 216.644 291.261 216.644 289.727C216.644 288.193 216.921 286.867 217.475 285.75C218.029 284.633 218.789 283.771 219.755 283.165C220.721 282.559 221.824 282.256 223.065 282.256C224.305 282.256 225.409 282.559 226.374 283.165C227.34 283.771 228.1 284.633 228.654 285.75C229.208 286.867 229.485 288.193 229.485 289.727ZM227.781 289.727C227.781 288.468 227.57 287.405 227.149 286.538C226.732 285.672 226.166 285.016 225.451 284.571C224.741 284.126 223.945 283.903 223.065 283.903C222.184 283.903 221.386 284.126 220.671 284.571C219.961 285.016 219.395 285.672 218.974 286.538C218.557 287.405 218.349 288.468 218.349 289.727C218.349 290.987 218.557 292.05 218.974 292.916C219.395 293.783 219.961 294.438 220.671 294.884C221.386 295.329 222.184 295.551 223.065 295.551C223.945 295.551 224.741 295.329 225.451 294.884C226.166 294.438 226.732 293.783 227.149 292.916C227.57 292.05 227.781 290.987 227.781 289.727ZM232.22 301.091V286.091H233.839V287.824H234.038C234.161 287.634 234.331 287.393 234.549 287.099C234.772 286.801 235.089 286.536 235.501 286.304C235.918 286.067 236.481 285.949 237.191 285.949C238.11 285.949 238.919 286.179 239.62 286.638C240.321 287.097 240.868 287.748 241.261 288.591C241.654 289.434 241.85 290.428 241.85 291.574C241.85 292.729 241.654 293.731 241.261 294.578C240.868 295.421 240.323 296.074 239.627 296.538C238.931 296.998 238.129 297.227 237.22 297.227C236.519 297.227 235.958 297.111 235.536 296.879C235.115 296.643 234.791 296.375 234.563 296.077C234.336 295.774 234.161 295.523 234.038 295.324H233.896V301.091H232.22ZM233.867 291.545C233.867 292.369 233.988 293.096 234.23 293.726C234.471 294.351 234.824 294.841 235.288 295.196C235.752 295.546 236.32 295.722 236.992 295.722C237.693 295.722 238.278 295.537 238.747 295.168C239.22 294.794 239.575 294.292 239.812 293.662C240.053 293.027 240.174 292.322 240.174 291.545C240.174 290.778 240.056 290.087 239.819 289.472C239.587 288.851 239.234 288.361 238.761 288.001C238.292 287.637 237.703 287.455 236.992 287.455C236.311 287.455 235.738 287.627 235.274 287.973C234.81 288.314 234.459 288.792 234.222 289.408C233.986 290.018 233.867 290.731 233.867 291.545ZM244.407 297V286.091H246.026V287.739H246.14C246.339 287.199 246.699 286.761 247.22 286.425C247.74 286.089 248.328 285.92 248.981 285.92C249.104 285.92 249.258 285.923 249.443 285.928C249.627 285.932 249.767 285.939 249.862 285.949V287.653C249.805 287.639 249.675 287.618 249.471 287.589C249.272 287.556 249.061 287.54 248.839 287.54C248.309 287.54 247.835 287.651 247.419 287.874C247.007 288.091 246.68 288.394 246.438 288.783C246.202 289.166 246.083 289.604 246.083 290.097V297H244.407ZM255.059 297.256C254.367 297.256 253.74 297.125 253.177 296.865C252.613 296.6 252.166 296.219 251.834 295.722C251.503 295.22 251.337 294.614 251.337 293.903C251.337 293.278 251.46 292.772 251.706 292.384C251.953 291.991 252.282 291.683 252.694 291.46C253.106 291.238 253.56 291.072 254.057 290.963C254.559 290.849 255.064 290.759 255.57 290.693C256.233 290.608 256.77 290.544 257.182 290.501C257.599 290.454 257.902 290.376 258.091 290.267C258.286 290.158 258.383 289.969 258.383 289.699V289.642C258.383 288.941 258.191 288.397 257.807 288.009C257.429 287.62 256.853 287.426 256.081 287.426C255.281 287.426 254.654 287.601 254.199 287.952C253.745 288.302 253.425 288.676 253.241 289.074L251.65 288.506C251.934 287.843 252.313 287.327 252.786 286.957C253.264 286.583 253.785 286.323 254.349 286.176C254.917 286.025 255.475 285.949 256.025 285.949C256.375 285.949 256.778 285.991 257.232 286.077C257.691 286.157 258.134 286.325 258.56 286.581C258.991 286.837 259.349 287.223 259.633 287.739C259.917 288.255 260.059 288.946 260.059 289.812V297H258.383V295.523H258.297C258.184 295.759 257.994 296.013 257.729 296.283C257.464 296.553 257.111 296.782 256.671 296.972C256.231 297.161 255.693 297.256 255.059 297.256ZM255.314 295.75C255.977 295.75 256.536 295.62 256.991 295.359C257.45 295.099 257.796 294.763 258.028 294.351C258.264 293.939 258.383 293.506 258.383 293.051V291.517C258.312 291.602 258.155 291.68 257.914 291.751C257.677 291.818 257.403 291.877 257.09 291.929C256.782 291.976 256.482 292.019 256.188 292.057C255.899 292.09 255.665 292.118 255.485 292.142C255.049 292.199 254.642 292.291 254.263 292.419C253.889 292.542 253.586 292.729 253.354 292.98C253.127 293.226 253.013 293.562 253.013 293.989C253.013 294.571 253.229 295.011 253.66 295.31C254.095 295.603 254.647 295.75 255.314 295.75ZM267.55 297.227C266.527 297.227 265.646 296.986 264.908 296.503C264.169 296.02 263.601 295.355 263.203 294.507C262.806 293.66 262.607 292.691 262.607 291.602C262.607 290.494 262.81 289.517 263.218 288.669C263.629 287.817 264.202 287.152 264.936 286.673C265.675 286.19 266.537 285.949 267.521 285.949C268.289 285.949 268.98 286.091 269.595 286.375C270.211 286.659 270.715 287.057 271.108 287.568C271.501 288.08 271.745 288.676 271.84 289.358H270.164C270.036 288.861 269.752 288.42 269.311 288.037C268.876 287.649 268.289 287.455 267.55 287.455C266.896 287.455 266.324 287.625 265.831 287.966C265.343 288.302 264.962 288.778 264.688 289.393C264.418 290.004 264.283 290.722 264.283 291.545C264.283 292.388 264.415 293.122 264.681 293.747C264.95 294.372 265.329 294.857 265.817 295.203C266.309 295.549 266.887 295.722 267.55 295.722C267.985 295.722 268.381 295.646 268.736 295.494C269.091 295.343 269.392 295.125 269.638 294.841C269.884 294.557 270.059 294.216 270.164 293.818H271.84C271.745 294.462 271.511 295.042 271.137 295.558C270.767 296.07 270.277 296.477 269.666 296.78C269.06 297.078 268.355 297.227 267.55 297.227ZM278.722 297.227C277.737 297.227 276.873 296.993 276.129 296.524C275.391 296.055 274.813 295.4 274.396 294.557C273.985 293.714 273.779 292.729 273.779 291.602C273.779 290.466 273.985 289.474 274.396 288.626C274.813 287.779 275.391 287.121 276.129 286.652C276.873 286.183 277.737 285.949 278.722 285.949C279.707 285.949 280.568 286.183 281.307 286.652C282.05 287.121 282.628 287.779 283.04 288.626C283.457 289.474 283.665 290.466 283.665 291.602C283.665 292.729 283.457 293.714 283.04 294.557C282.628 295.4 282.05 296.055 281.307 296.524C280.568 296.993 279.707 297.227 278.722 297.227ZM278.722 295.722C279.47 295.722 280.085 295.53 280.568 295.146C281.051 294.763 281.409 294.259 281.641 293.634C281.873 293.009 281.989 292.331 281.989 291.602C281.989 290.873 281.873 290.194 281.641 289.564C281.409 288.934 281.051 288.425 280.568 288.037C280.085 287.649 279.47 287.455 278.722 287.455C277.974 287.455 277.358 287.649 276.875 288.037C276.392 288.425 276.035 288.934 275.803 289.564C275.571 290.194 275.455 290.873 275.455 291.602C275.455 292.331 275.571 293.009 275.803 293.634C276.035 294.259 276.392 294.763 276.875 295.146C277.358 295.53 277.974 295.722 278.722 295.722ZM288.324 297L285 286.091H286.762L289.119 294.443H289.233L291.563 286.091H293.352L295.654 294.415H295.767L298.125 286.091H299.887L296.563 297H294.915L292.529 288.619H292.358L289.972 297H288.324ZM305.313 297.256C304.621 297.256 303.994 297.125 303.431 296.865C302.867 296.6 302.42 296.219 302.088 295.722C301.757 295.22 301.591 294.614 301.591 293.903C301.591 293.278 301.714 292.772 301.96 292.384C302.207 291.991 302.536 291.683 302.948 291.46C303.36 291.238 303.814 291.072 304.311 290.963C304.813 290.849 305.317 290.759 305.824 290.693C306.487 290.608 307.024 290.544 307.436 290.501C307.853 290.454 308.156 290.376 308.345 290.267C308.539 290.158 308.637 289.969 308.637 289.699V289.642C308.637 288.941 308.445 288.397 308.061 288.009C307.682 287.62 307.107 287.426 306.335 287.426C305.535 287.426 304.908 287.601 304.453 287.952C303.999 288.302 303.679 288.676 303.494 289.074L301.904 288.506C302.188 287.843 302.566 287.327 303.04 286.957C303.518 286.583 304.039 286.323 304.602 286.176C305.171 286.025 305.729 285.949 306.279 285.949C306.629 285.949 307.031 285.991 307.486 286.077C307.945 286.157 308.388 286.325 308.814 286.581C309.245 286.837 309.602 287.223 309.887 287.739C310.171 288.255 310.313 288.946 310.313 289.812V297H308.637V295.523H308.551C308.438 295.759 308.248 296.013 307.983 296.283C307.718 296.553 307.365 296.782 306.925 296.972C306.485 297.161 305.947 297.256 305.313 297.256ZM305.568 295.75C306.231 295.75 306.79 295.62 307.244 295.359C307.704 295.099 308.049 294.763 308.281 294.351C308.518 293.939 308.637 293.506 308.637 293.051V291.517C308.566 291.602 308.409 291.68 308.168 291.751C307.931 291.818 307.656 291.877 307.344 291.929C307.036 291.976 306.735 292.019 306.442 292.057C306.153 292.09 305.919 292.118 305.739 292.142C305.303 292.199 304.896 292.291 304.517 292.419C304.143 292.542 303.84 292.729 303.608 292.98C303.381 293.226 303.267 293.562 303.267 293.989C303.267 294.571 303.483 295.011 303.914 295.31C304.349 295.603 304.901 295.75 305.568 295.75ZM315.048 290.438V297H313.372V286.091H314.991V287.795H315.133C315.389 287.241 315.777 286.796 316.298 286.46C316.819 286.119 317.491 285.949 318.315 285.949C319.054 285.949 319.7 286.1 320.254 286.403C320.808 286.702 321.239 287.156 321.547 287.767C321.854 288.373 322.008 289.14 322.008 290.068V297H320.332V290.182C320.332 289.325 320.11 288.657 319.665 288.179C319.22 287.696 318.609 287.455 317.832 287.455C317.297 287.455 316.819 287.571 316.398 287.803C315.981 288.035 315.652 288.373 315.41 288.818C315.169 289.263 315.048 289.803 315.048 290.438ZM325.071 297V286.091H326.747V297H325.071ZM325.923 284.273C325.597 284.273 325.315 284.161 325.078 283.939C324.846 283.716 324.73 283.449 324.73 283.136C324.73 282.824 324.846 282.556 325.078 282.334C325.315 282.111 325.597 282 325.923 282C326.25 282 326.53 282.111 326.762 282.334C326.998 282.556 327.117 282.824 327.117 283.136C327.117 283.449 326.998 283.716 326.762 283.939C326.53 284.161 326.25 284.273 325.923 284.273ZM334.391 297.227C333.34 297.227 332.433 296.995 331.671 296.531C330.913 296.062 330.329 295.409 329.917 294.571C329.51 293.728 329.306 292.748 329.306 291.631C329.306 290.513 329.51 289.528 329.917 288.676C330.329 287.819 330.902 287.152 331.635 286.673C332.374 286.19 333.236 285.949 334.221 285.949C334.789 285.949 335.35 286.044 335.904 286.233C336.458 286.422 336.962 286.73 337.417 287.156C337.871 287.578 338.233 288.136 338.503 288.832C338.773 289.528 338.908 290.385 338.908 291.403V292.114H330.499V290.665H337.204C337.204 290.049 337.081 289.5 336.834 289.017C336.593 288.534 336.247 288.153 335.797 287.874C335.352 287.594 334.827 287.455 334.221 287.455C333.553 287.455 332.975 287.62 332.488 287.952C332.005 288.278 331.633 288.705 331.373 289.23C331.112 289.756 330.982 290.319 330.982 290.92V291.886C330.982 292.71 331.124 293.409 331.408 293.982C331.697 294.55 332.097 294.983 332.608 295.281C333.12 295.575 333.714 295.722 334.391 295.722C334.831 295.722 335.229 295.66 335.584 295.537C335.944 295.409 336.254 295.22 336.515 294.969C336.775 294.713 336.976 294.396 337.118 294.017L338.738 294.472C338.567 295.021 338.281 295.504 337.878 295.92C337.476 296.332 336.979 296.654 336.387 296.886C335.795 297.114 335.13 297.227 334.391 297.227ZM230.794 321V310.091H232.413V311.795H232.555C232.782 311.213 233.149 310.761 233.656 310.439C234.163 310.112 234.771 309.949 235.481 309.949C236.201 309.949 236.8 310.112 237.278 310.439C237.761 310.761 238.138 311.213 238.407 311.795H238.521C238.8 311.232 239.22 310.785 239.778 310.453C240.337 310.117 241.007 309.949 241.788 309.949C242.764 309.949 243.561 310.254 244.182 310.865C244.802 311.471 245.112 312.416 245.112 313.699V321H243.436V313.699C243.436 312.894 243.216 312.319 242.775 311.973C242.335 311.627 241.817 311.455 241.22 311.455C240.453 311.455 239.859 311.687 239.437 312.151C239.016 312.61 238.805 313.192 238.805 313.898V321H237.101V313.528C237.101 312.908 236.899 312.409 236.497 312.03C236.095 311.646 235.576 311.455 234.942 311.455C234.506 311.455 234.099 311.571 233.72 311.803C233.346 312.035 233.043 312.357 232.811 312.768C232.584 313.176 232.47 313.647 232.47 314.182V321H230.794ZM252.608 321.227C251.624 321.227 250.76 320.993 250.016 320.524C249.278 320.055 248.7 319.4 248.283 318.557C247.871 317.714 247.665 316.729 247.665 315.602C247.665 314.466 247.871 313.474 248.283 312.626C248.7 311.779 249.278 311.121 250.016 310.652C250.76 310.183 251.624 309.949 252.608 309.949C253.593 309.949 254.455 310.183 255.194 310.652C255.937 311.121 256.515 311.779 256.927 312.626C257.343 313.474 257.552 314.466 257.552 315.602C257.552 316.729 257.343 317.714 256.927 318.557C256.515 319.4 255.937 320.055 255.194 320.524C254.455 320.993 253.593 321.227 252.608 321.227ZM252.608 319.722C253.357 319.722 253.972 319.53 254.455 319.146C254.938 318.763 255.296 318.259 255.528 317.634C255.76 317.009 255.876 316.331 255.876 315.602C255.876 314.873 255.76 314.194 255.528 313.564C255.296 312.934 254.938 312.425 254.455 312.037C253.972 311.649 253.357 311.455 252.608 311.455C251.86 311.455 251.245 311.649 250.762 312.037C250.279 312.425 249.921 312.934 249.689 313.564C249.457 314.194 249.341 314.873 249.341 315.602C249.341 316.331 249.457 317.009 249.689 317.634C249.921 318.259 250.279 318.763 250.762 319.146C251.245 319.53 251.86 319.722 252.608 319.722ZM264.23 321.227C263.32 321.227 262.518 320.998 261.822 320.538C261.126 320.074 260.581 319.421 260.188 318.578C259.795 317.731 259.599 316.729 259.599 315.574C259.599 314.428 259.795 313.434 260.188 312.591C260.581 311.748 261.128 311.097 261.829 310.638C262.53 310.179 263.339 309.949 264.258 309.949C264.968 309.949 265.529 310.067 265.941 310.304C266.358 310.536 266.675 310.801 266.893 311.099C267.115 311.393 267.288 311.634 267.411 311.824H267.553V306.455H269.23V321H267.61V319.324H267.411C267.288 319.523 267.113 319.774 266.886 320.077C266.659 320.375 266.334 320.643 265.913 320.879C265.491 321.111 264.93 321.227 264.23 321.227ZM264.457 319.722C265.129 319.722 265.697 319.546 266.161 319.196C266.625 318.841 266.978 318.351 267.22 317.726C267.461 317.096 267.582 316.369 267.582 315.545C267.582 314.731 267.463 314.018 267.227 313.408C266.99 312.792 266.64 312.314 266.176 311.973C265.712 311.627 265.139 311.455 264.457 311.455C263.747 311.455 263.155 311.637 262.681 312.001C262.213 312.361 261.86 312.851 261.623 313.472C261.391 314.087 261.275 314.778 261.275 315.545C261.275 316.322 261.393 317.027 261.63 317.662C261.872 318.292 262.227 318.794 262.695 319.168C263.169 319.537 263.756 319.722 264.457 319.722ZM277.106 321.227C276.055 321.227 275.148 320.995 274.386 320.531C273.628 320.062 273.044 319.409 272.632 318.571C272.224 317.728 272.021 316.748 272.021 315.631C272.021 314.513 272.224 313.528 272.632 312.676C273.044 311.819 273.616 311.152 274.35 310.673C275.089 310.19 275.951 309.949 276.936 309.949C277.504 309.949 278.065 310.044 278.619 310.233C279.173 310.422 279.677 310.73 280.132 311.156C280.586 311.578 280.948 312.136 281.218 312.832C281.488 313.528 281.623 314.385 281.623 315.403V316.114H273.214V314.665H279.919C279.919 314.049 279.795 313.5 279.549 313.017C279.308 312.534 278.962 312.153 278.512 311.874C278.067 311.594 277.542 311.455 276.936 311.455C276.268 311.455 275.69 311.62 275.203 311.952C274.72 312.278 274.348 312.705 274.088 313.23C273.827 313.756 273.697 314.319 273.697 314.92V315.886C273.697 316.71 273.839 317.409 274.123 317.982C274.412 318.55 274.812 318.983 275.323 319.281C275.835 319.575 276.429 319.722 277.106 319.722C277.546 319.722 277.944 319.66 278.299 319.537C278.659 319.409 278.969 319.22 279.23 318.969C279.49 318.713 279.691 318.396 279.833 318.017L281.453 318.472C281.282 319.021 280.996 319.504 280.593 319.92C280.191 320.332 279.694 320.654 279.102 320.886C278.51 321.114 277.845 321.227 277.106 321.227ZM285.849 306.455V321H284.173V306.455H285.849ZM295.794 316.54V310.091H297.47V321H295.794V319.153H295.68C295.425 319.707 295.027 320.179 294.487 320.567C293.947 320.95 293.265 321.142 292.442 321.142C291.76 321.142 291.154 320.993 290.623 320.695C290.093 320.392 289.676 319.937 289.373 319.331C289.07 318.72 288.919 317.951 288.919 317.023V310.091H290.595V316.909C290.595 317.705 290.818 318.339 291.263 318.812C291.712 319.286 292.285 319.523 292.981 319.523C293.398 319.523 293.822 319.416 294.253 319.203C294.688 318.99 295.053 318.663 295.346 318.223C295.645 317.783 295.794 317.222 295.794 316.54ZM311.051 321.199C310.114 321.199 309.278 321.038 308.544 320.716C307.815 320.394 307.235 319.946 306.804 319.374C306.378 318.796 306.146 318.126 306.108 317.364H307.898C307.936 317.832 308.097 318.237 308.381 318.578C308.665 318.914 309.037 319.175 309.496 319.359C309.955 319.544 310.464 319.636 311.023 319.636C311.648 319.636 312.202 319.527 312.685 319.31C313.168 319.092 313.547 318.789 313.821 318.401C314.096 318.012 314.233 317.562 314.233 317.051C314.233 316.516 314.101 316.045 313.835 315.638C313.57 315.226 313.182 314.904 312.671 314.672C312.159 314.44 311.534 314.324 310.796 314.324H309.631V312.761H310.796C311.373 312.761 311.88 312.657 312.316 312.449C312.756 312.241 313.099 311.947 313.345 311.568C313.596 311.189 313.722 310.744 313.722 310.233C313.722 309.741 313.613 309.312 313.395 308.947C313.177 308.583 312.869 308.299 312.472 308.095C312.079 307.892 311.615 307.79 311.08 307.79C310.578 307.79 310.104 307.882 309.659 308.067C309.219 308.247 308.859 308.509 308.58 308.855C308.3 309.196 308.149 309.608 308.125 310.091H306.421C306.449 309.329 306.679 308.661 307.11 308.088C307.54 307.51 308.104 307.061 308.8 306.739C309.501 306.417 310.27 306.256 311.108 306.256C312.008 306.256 312.78 306.438 313.423 306.803C314.067 307.162 314.562 307.638 314.908 308.23C315.253 308.822 315.426 309.461 315.426 310.148C315.426 310.967 315.211 311.665 314.78 312.243C314.354 312.821 313.774 313.221 313.04 313.443V313.557C313.959 313.708 314.676 314.099 315.192 314.729C315.708 315.354 315.966 316.128 315.966 317.051C315.966 317.842 315.751 318.552 315.32 319.182C314.894 319.807 314.311 320.299 313.573 320.659C312.834 321.019 311.994 321.199 311.051 321.199ZM323.615 321H319.127V306.455H323.814C325.225 306.455 326.432 306.746 327.436 307.328C328.44 307.906 329.209 308.737 329.744 309.821C330.28 310.901 330.547 312.193 330.547 313.699C330.547 315.214 330.277 316.518 329.737 317.612C329.198 318.701 328.412 319.539 327.379 320.126C326.347 320.709 325.093 321 323.615 321ZM320.888 319.438H323.502C324.704 319.438 325.701 319.205 326.492 318.741C327.282 318.277 327.872 317.617 328.26 316.76C328.648 315.903 328.843 314.883 328.843 313.699C328.843 312.525 328.651 311.514 328.267 310.666C327.884 309.814 327.311 309.161 326.548 308.706C325.786 308.247 324.837 308.017 323.7 308.017H320.888V319.438Z" fill="black"/>
<circle cx="280" cy="739" r="75" fill="#D9D9D9"/>
<path d="M218.957 746V731.455H223.871C225.013 731.455 225.945 731.661 226.67 732.072C227.399 732.48 227.939 733.031 228.289 733.727C228.639 734.423 228.815 735.2 228.815 736.057C228.815 736.914 228.639 737.693 228.289 738.393C227.943 739.094 227.408 739.653 226.684 740.07C225.96 740.482 225.031 740.688 223.9 740.688H220.377V739.125H223.843C224.624 739.125 225.252 738.99 225.725 738.72C226.199 738.45 226.542 738.086 226.755 737.626C226.973 737.162 227.082 736.639 227.082 736.057C227.082 735.474 226.973 734.954 226.755 734.494C226.542 734.035 226.196 733.675 225.718 733.415C225.24 733.15 224.605 733.017 223.815 733.017H220.718V746H218.957ZM231.425 746V735.091H233.044V736.739H233.158C233.357 736.199 233.716 735.761 234.237 735.425C234.758 735.089 235.345 734.92 235.999 734.92C236.122 734.92 236.276 734.923 236.46 734.928C236.645 734.932 236.785 734.939 236.879 734.949V736.653C236.822 736.639 236.692 736.618 236.489 736.589C236.29 736.556 236.079 736.54 235.857 736.54C235.326 736.54 234.853 736.651 234.436 736.874C234.024 737.091 233.697 737.394 233.456 737.783C233.219 738.166 233.101 738.604 233.101 739.097V746H231.425ZM242.966 746.227C241.981 746.227 241.117 745.993 240.374 745.524C239.635 745.055 239.057 744.4 238.641 743.557C238.229 742.714 238.023 741.729 238.023 740.602C238.023 739.466 238.229 738.474 238.641 737.626C239.057 736.779 239.635 736.121 240.374 735.652C241.117 735.183 241.981 734.949 242.966 734.949C243.951 734.949 244.813 735.183 245.551 735.652C246.295 736.121 246.872 736.779 247.284 737.626C247.701 738.474 247.909 739.466 247.909 740.602C247.909 741.729 247.701 742.714 247.284 743.557C246.872 744.4 246.295 745.055 245.551 745.524C244.813 745.993 243.951 746.227 242.966 746.227ZM242.966 744.722C243.714 744.722 244.33 744.53 244.812 744.146C245.295 743.763 245.653 743.259 245.885 742.634C246.117 742.009 246.233 741.331 246.233 740.602C246.233 739.873 246.117 739.194 245.885 738.564C245.653 737.934 245.295 737.425 244.812 737.037C244.33 736.649 243.714 736.455 242.966 736.455C242.218 736.455 241.602 736.649 241.119 737.037C240.636 737.425 240.279 737.934 240.047 738.564C239.815 739.194 239.699 739.873 239.699 740.602C239.699 741.331 239.815 742.009 240.047 742.634C240.279 743.259 240.636 743.763 241.119 744.146C241.602 744.53 242.218 744.722 242.966 744.722ZM254.9 746.227C253.877 746.227 252.996 745.986 252.257 745.503C251.519 745.02 250.951 744.355 250.553 743.507C250.155 742.66 249.956 741.691 249.956 740.602C249.956 739.494 250.16 738.517 250.567 737.669C250.979 736.817 251.552 736.152 252.286 735.673C253.025 735.19 253.886 734.949 254.871 734.949C255.638 734.949 256.329 735.091 256.945 735.375C257.56 735.659 258.065 736.057 258.458 736.568C258.851 737.08 259.095 737.676 259.189 738.358H257.513C257.385 737.861 257.101 737.42 256.661 737.037C256.225 736.649 255.638 736.455 254.9 736.455C254.246 736.455 253.673 736.625 253.181 736.966C252.693 737.302 252.312 737.778 252.037 738.393C251.767 739.004 251.632 739.722 251.632 740.545C251.632 741.388 251.765 742.122 252.03 742.747C252.3 743.372 252.679 743.857 253.167 744.203C253.659 744.549 254.237 744.722 254.9 744.722C255.335 744.722 255.73 744.646 256.086 744.494C256.441 744.343 256.741 744.125 256.988 743.841C257.234 743.557 257.409 743.216 257.513 742.818H259.189C259.095 743.462 258.86 744.042 258.486 744.558C258.117 745.07 257.627 745.477 257.016 745.78C256.41 746.078 255.704 746.227 254.9 746.227ZM266.213 746.227C265.162 746.227 264.256 745.995 263.493 745.531C262.736 745.062 262.151 744.409 261.739 743.571C261.332 742.728 261.128 741.748 261.128 740.631C261.128 739.513 261.332 738.528 261.739 737.676C262.151 736.819 262.724 736.152 263.458 735.673C264.196 735.19 265.058 734.949 266.043 734.949C266.611 734.949 267.172 735.044 267.726 735.233C268.28 735.422 268.784 735.73 269.239 736.156C269.694 736.578 270.056 737.136 270.326 737.832C270.596 738.528 270.73 739.385 270.73 740.403V741.114H262.321V739.665H269.026C269.026 739.049 268.903 738.5 268.657 738.017C268.415 737.534 268.069 737.153 267.62 736.874C267.175 736.594 266.649 736.455 266.043 736.455C265.375 736.455 264.798 736.62 264.31 736.952C263.827 737.278 263.455 737.705 263.195 738.23C262.935 738.756 262.804 739.319 262.804 739.92V740.886C262.804 741.71 262.946 742.409 263.23 742.982C263.519 743.55 263.919 743.983 264.431 744.281C264.942 744.575 265.536 744.722 266.213 744.722C266.654 744.722 267.051 744.66 267.407 744.537C267.766 744.409 268.077 744.22 268.337 743.969C268.597 743.713 268.799 743.396 268.941 743.017L270.56 743.472C270.39 744.021 270.103 744.504 269.701 744.92C269.298 745.332 268.801 745.654 268.209 745.886C267.617 746.114 266.952 746.227 266.213 746.227ZM281.007 737.534L279.502 737.96C279.407 737.709 279.267 737.465 279.083 737.229C278.903 736.987 278.657 736.788 278.344 736.632C278.032 736.476 277.632 736.398 277.144 736.398C276.476 736.398 275.92 736.552 275.475 736.859C275.034 737.162 274.814 737.548 274.814 738.017C274.814 738.434 274.966 738.763 275.269 739.004C275.572 739.246 276.045 739.447 276.689 739.608L278.309 740.006C279.284 740.242 280.011 740.605 280.489 741.092C280.967 741.575 281.206 742.198 281.206 742.96C281.206 743.585 281.026 744.144 280.667 744.636C280.311 745.129 279.814 745.517 279.175 745.801C278.536 746.085 277.792 746.227 276.945 746.227C275.832 746.227 274.911 745.986 274.182 745.503C273.453 745.02 272.991 744.314 272.797 743.386L274.388 742.989C274.54 743.576 274.826 744.016 275.248 744.31C275.674 744.603 276.23 744.75 276.917 744.75C277.698 744.75 278.318 744.584 278.777 744.253C279.241 743.917 279.473 743.514 279.473 743.045C279.473 742.667 279.341 742.349 279.076 742.094C278.81 741.833 278.403 741.639 277.854 741.511L276.036 741.085C275.037 740.848 274.303 740.482 273.834 739.984C273.37 739.482 273.138 738.855 273.138 738.102C273.138 737.487 273.311 736.942 273.657 736.469C274.007 735.995 274.483 735.624 275.084 735.354C275.69 735.084 276.377 734.949 277.144 734.949C278.223 734.949 279.071 735.186 279.686 735.659C280.307 736.133 280.747 736.758 281.007 737.534ZM293.474 746.227C292.565 746.227 291.762 745.998 291.066 745.538C290.37 745.074 289.826 744.421 289.433 743.578C289.04 742.731 288.843 741.729 288.843 740.574C288.843 739.428 289.04 738.434 289.433 737.591C289.826 736.748 290.372 736.097 291.073 735.638C291.774 735.179 292.584 734.949 293.502 734.949C294.212 734.949 294.773 735.067 295.185 735.304C295.602 735.536 295.919 735.801 296.137 736.099C296.36 736.393 296.532 736.634 296.656 736.824H296.798V731.455H298.474V746H296.854V744.324H296.656C296.532 744.523 296.357 744.774 296.13 745.077C295.903 745.375 295.578 745.643 295.157 745.879C294.736 746.111 294.174 746.227 293.474 746.227ZM293.701 744.722C294.373 744.722 294.942 744.546 295.406 744.196C295.87 743.841 296.222 743.351 296.464 742.726C296.705 742.096 296.826 741.369 296.826 740.545C296.826 739.731 296.708 739.018 296.471 738.408C296.234 737.792 295.884 737.314 295.42 736.973C294.956 736.627 294.383 736.455 293.701 736.455C292.991 736.455 292.399 736.637 291.925 737.001C291.457 737.361 291.104 737.851 290.867 738.472C290.635 739.087 290.519 739.778 290.519 740.545C290.519 741.322 290.638 742.027 290.874 742.662C291.116 743.292 291.471 743.794 291.94 744.168C292.413 744.537 293 744.722 293.701 744.722ZM301.776 746V735.091H303.396V736.739H303.509C303.708 736.199 304.068 735.761 304.589 735.425C305.11 735.089 305.697 734.92 306.35 734.92C306.473 734.92 306.627 734.923 306.812 734.928C306.996 734.932 307.136 734.939 307.231 734.949V736.653C307.174 736.639 307.044 736.618 306.84 736.589C306.641 736.556 306.431 736.54 306.208 736.54C305.678 736.54 305.204 736.651 304.788 736.874C304.376 737.091 304.049 737.394 303.808 737.783C303.571 738.166 303.452 738.604 303.452 739.097V746H301.776ZM316.093 741.54V735.091H317.769V746H316.093V744.153H315.979C315.723 744.707 315.326 745.179 314.786 745.567C314.246 745.95 313.564 746.142 312.74 746.142C312.059 746.142 311.453 745.993 310.922 745.695C310.392 745.392 309.975 744.937 309.672 744.331C309.369 743.72 309.218 742.951 309.218 742.023V735.091H310.894V741.909C310.894 742.705 311.116 743.339 311.561 743.812C312.011 744.286 312.584 744.523 313.28 744.523C313.697 744.523 314.121 744.416 314.551 744.203C314.987 743.99 315.352 743.663 315.645 743.223C315.944 742.783 316.093 742.222 316.093 741.54ZM322.401 742.023L322.373 739.949H322.714L327.487 735.091H329.56L324.475 740.233H324.333L322.401 742.023ZM320.839 746V731.455H322.515V746H320.839ZM327.771 746L323.509 740.602L324.702 739.438L329.901 746H327.771ZM338.593 741.54V735.091H340.269V746H338.593V744.153H338.479C338.223 744.707 337.826 745.179 337.286 745.567C336.746 745.95 336.064 746.142 335.24 746.142C334.559 746.142 333.953 745.993 333.422 745.695C332.892 745.392 332.475 744.937 332.172 744.331C331.869 743.72 331.718 742.951 331.718 742.023V735.091H333.394V741.909C333.394 742.705 333.616 743.339 334.061 743.812C334.511 744.286 335.084 744.523 335.78 744.523C336.197 744.523 336.621 744.416 337.051 744.203C337.487 743.99 337.852 743.663 338.145 743.223C338.444 742.783 338.593 742.222 338.593 741.54Z" fill="black"/>
<circle cx="123" cy="963" r="75" fill="#D9D9D9"/>
<path d="M76.5323 936H74.771C74.6668 935.493 74.4845 935.048 74.2241 934.665C73.9684 934.281 73.6559 933.959 73.2866 933.699C72.922 933.434 72.5172 933.235 72.0721 933.102C71.627 932.97 71.163 932.903 70.68 932.903C69.7994 932.903 69.0015 933.126 68.2866 933.571C67.5763 934.016 67.0105 934.672 66.5891 935.538C66.1725 936.405 65.9641 937.468 65.9641 938.727C65.9641 939.987 66.1725 941.05 66.5891 941.916C67.0105 942.783 67.5763 943.438 68.2866 943.884C69.0015 944.329 69.7994 944.551 70.68 944.551C71.163 944.551 71.627 944.485 72.0721 944.352C72.5172 944.22 72.922 944.023 73.2866 943.763C73.6559 943.498 73.9684 943.173 74.2241 942.79C74.4845 942.402 74.6668 941.956 74.771 941.455H76.5323C76.3997 942.198 76.1583 942.863 75.8079 943.45C75.4575 944.037 75.0219 944.537 74.5011 944.949C73.9802 945.356 73.3955 945.666 72.7468 945.879C72.1029 946.092 71.4139 946.199 70.68 946.199C69.4395 946.199 68.3363 945.896 67.3704 945.29C66.4045 944.684 65.6445 943.822 65.0906 942.705C64.5366 941.587 64.2596 940.261 64.2596 938.727C64.2596 937.193 64.5366 935.867 65.0906 934.75C65.6445 933.633 66.4045 932.771 67.3704 932.165C68.3363 931.559 69.4395 931.256 70.68 931.256C71.4139 931.256 72.1029 931.362 72.7468 931.575C73.3955 931.788 73.9802 932.101 74.5011 932.513C75.0219 932.92 75.4575 933.417 75.8079 934.004C76.1583 934.587 76.3997 935.252 76.5323 936ZM78.8388 946V944.722L85.032 936.767V936.653H79.0376V935.091H87.1911V936.426L81.1683 944.324V944.438H87.3899V946H78.8388ZM91.0511 950.091C90.767 950.091 90.5137 950.067 90.2912 950.02C90.0687 949.977 89.9148 949.935 89.8295 949.892L90.2557 948.415C90.6629 948.519 91.0227 948.557 91.3352 948.528C91.6477 948.5 91.9247 948.36 92.1662 948.109C92.4124 947.863 92.6373 947.463 92.8409 946.909L93.1534 946.057L89.1193 935.091H90.9375L93.9489 943.784H94.0625L97.0739 935.091H98.892L94.2614 947.591C94.053 948.154 93.795 948.621 93.4872 948.99C93.1795 949.364 92.822 949.641 92.4148 949.821C92.0123 950.001 91.5578 950.091 91.0511 950.091ZM108.832 937.534L107.326 937.96C107.231 937.709 107.092 937.465 106.907 937.229C106.727 936.987 106.481 936.788 106.168 936.632C105.856 936.476 105.456 936.398 104.968 936.398C104.3 936.398 103.744 936.552 103.299 936.859C102.859 937.162 102.638 937.548 102.638 938.017C102.638 938.434 102.79 938.763 103.093 939.004C103.396 939.246 103.87 939.447 104.513 939.608L106.133 940.006C107.108 940.242 107.835 940.605 108.313 941.092C108.791 941.575 109.031 942.198 109.031 942.96C109.031 943.585 108.851 944.144 108.491 944.636C108.136 945.129 107.638 945.517 106.999 945.801C106.36 946.085 105.617 946.227 104.769 946.227C103.656 946.227 102.736 945.986 102.006 945.503C101.277 945.02 100.816 944.314 100.621 943.386L102.212 942.989C102.364 943.576 102.65 944.016 103.072 944.31C103.498 944.603 104.054 944.75 104.741 944.75C105.522 944.75 106.142 944.584 106.602 944.253C107.066 943.917 107.298 943.514 107.298 943.045C107.298 942.667 107.165 942.349 106.9 942.094C106.635 941.833 106.228 941.639 105.678 941.511L103.86 941.085C102.861 940.848 102.127 940.482 101.658 939.984C101.194 939.482 100.962 938.855 100.962 938.102C100.962 937.487 101.135 936.942 101.481 936.469C101.831 935.995 102.307 935.624 102.908 935.354C103.514 935.084 104.201 934.949 104.968 934.949C106.048 934.949 106.895 935.186 107.511 935.659C108.131 936.133 108.571 936.758 108.832 937.534ZM111.241 946V944.722L117.434 936.767V936.653H111.44V935.091H119.593V936.426L113.571 944.324V944.438H119.792V946H111.241ZM126.493 946.227C125.471 946.227 124.59 945.986 123.851 945.503C123.113 945.02 122.544 944.355 122.147 943.507C121.749 942.66 121.55 941.691 121.55 940.602C121.55 939.494 121.754 938.517 122.161 937.669C122.573 936.817 123.146 936.152 123.88 935.673C124.618 935.19 125.48 934.949 126.465 934.949C127.232 934.949 127.923 935.091 128.539 935.375C129.154 935.659 129.658 936.057 130.051 936.568C130.444 937.08 130.688 937.676 130.783 938.358H129.107C128.979 937.861 128.695 937.42 128.255 937.037C127.819 936.649 127.232 936.455 126.493 936.455C125.84 936.455 125.267 936.625 124.775 936.966C124.287 937.302 123.906 937.778 123.631 938.393C123.361 939.004 123.226 939.722 123.226 940.545C123.226 941.388 123.359 942.122 123.624 942.747C123.894 943.372 124.273 943.857 124.76 944.203C125.253 944.549 125.83 944.722 126.493 944.722C126.929 944.722 127.324 944.646 127.679 944.494C128.034 944.343 128.335 944.125 128.581 943.841C128.828 943.557 129.003 943.216 129.107 942.818H130.783C130.688 943.462 130.454 944.042 130.08 944.558C129.711 945.07 129.221 945.477 128.61 945.78C128.004 946.078 127.298 946.227 126.493 946.227ZM132.921 946V944.722L139.114 936.767V936.653H133.12V935.091H141.273V936.426L135.25 944.324V944.438H141.472V946H132.921ZM148.315 946.227C147.264 946.227 146.357 945.995 145.595 945.531C144.837 945.062 144.252 944.409 143.841 943.571C143.433 942.728 143.23 941.748 143.23 940.631C143.23 939.513 143.433 938.528 143.841 937.676C144.252 936.819 144.825 936.152 145.559 935.673C146.298 935.19 147.16 934.949 148.145 934.949C148.713 934.949 149.274 935.044 149.828 935.233C150.382 935.422 150.886 935.73 151.341 936.156C151.795 936.578 152.157 937.136 152.427 937.832C152.697 938.528 152.832 939.385 152.832 940.403V941.114H144.423V939.665H151.127C151.127 939.049 151.004 938.5 150.758 938.017C150.517 937.534 150.171 937.153 149.721 936.874C149.276 936.594 148.751 936.455 148.145 936.455C147.477 936.455 146.899 936.62 146.412 936.952C145.929 937.278 145.557 937.705 145.297 938.23C145.036 938.756 144.906 939.319 144.906 939.92V940.886C144.906 941.71 145.048 942.409 145.332 942.982C145.621 943.55 146.021 943.983 146.532 944.281C147.044 944.575 147.638 944.722 148.315 944.722C148.755 944.722 149.153 944.66 149.508 944.537C149.868 944.409 150.178 944.22 150.439 943.969C150.699 943.713 150.9 943.396 151.042 943.017L152.662 943.472C152.491 944.021 152.205 944.504 151.802 944.92C151.4 945.332 150.903 945.654 150.311 945.886C149.719 946.114 149.054 946.227 148.315 946.227ZM157.058 939.438V946H155.382V935.091H157.001V936.795H157.143C157.399 936.241 157.787 935.796 158.308 935.46C158.829 935.119 159.501 934.949 160.325 934.949C161.064 934.949 161.71 935.1 162.264 935.403C162.818 935.702 163.249 936.156 163.556 936.767C163.864 937.373 164.018 938.14 164.018 939.068V946H162.342V939.182C162.342 938.325 162.119 937.657 161.674 937.179C161.229 936.696 160.618 936.455 159.842 936.455C159.307 936.455 158.829 936.571 158.407 936.803C157.991 937.035 157.662 937.373 157.42 937.818C157.179 938.263 157.058 938.803 157.058 939.438ZM167.081 946V935.091H168.757V946H167.081ZM167.933 933.273C167.607 933.273 167.325 933.161 167.088 932.939C166.856 932.716 166.74 932.449 166.74 932.136C166.74 931.824 166.856 931.556 167.088 931.334C167.325 931.111 167.607 931 167.933 931C168.26 931 168.539 931.111 168.771 931.334C169.008 931.556 169.126 931.824 169.126 932.136C169.126 932.449 169.008 932.716 168.771 932.939C168.539 933.161 168.26 933.273 167.933 933.273ZM176.401 946.227C175.35 946.227 174.443 945.995 173.681 945.531C172.923 945.062 172.338 944.409 171.926 943.571C171.519 942.728 171.316 941.748 171.316 940.631C171.316 939.513 171.519 938.528 171.926 937.676C172.338 936.819 172.911 936.152 173.645 935.673C174.384 935.19 175.246 934.949 176.23 934.949C176.799 934.949 177.36 935.044 177.914 935.233C178.468 935.422 178.972 935.73 179.426 936.156C179.881 936.578 180.243 937.136 180.513 937.832C180.783 938.528 180.918 939.385 180.918 940.403V941.114H172.509V939.665H179.213C179.213 939.049 179.09 938.5 178.844 938.017C178.603 937.534 178.257 937.153 177.807 936.874C177.362 936.594 176.837 936.455 176.23 936.455C175.563 936.455 174.985 936.62 174.498 936.952C174.015 937.278 173.643 937.705 173.382 938.23C173.122 938.756 172.992 939.319 172.992 939.92V940.886C172.992 941.71 173.134 942.409 173.418 942.982C173.707 943.55 174.107 943.983 174.618 944.281C175.13 944.575 175.724 944.722 176.401 944.722C176.841 944.722 177.239 944.66 177.594 944.537C177.954 944.409 178.264 944.22 178.525 943.969C178.785 943.713 178.986 943.396 179.128 943.017L180.748 943.472C180.577 944.021 180.291 944.504 179.888 944.92C179.486 945.332 178.989 945.654 178.397 945.886C177.805 946.114 177.14 946.227 176.401 946.227ZM81.163 970V959.091H82.7823V960.795H82.9244C83.1516 960.213 83.5186 959.761 84.0252 959.439C84.5318 959.112 85.1403 958.949 85.8505 958.949C86.5702 958.949 87.1692 959.112 87.6474 959.439C88.1303 959.761 88.5067 960.213 88.7766 960.795H88.8903C89.1696 960.232 89.5887 959.785 90.1474 959.453C90.7061 959.117 91.3761 958.949 92.1573 958.949C93.1327 958.949 93.9305 959.254 94.5508 959.865C95.171 960.471 95.4812 961.416 95.4812 962.699V970H93.805V962.699C93.805 961.894 93.5849 961.319 93.1445 960.973C92.7042 960.627 92.1857 960.455 91.5891 960.455C90.8221 960.455 90.2279 960.687 89.8065 961.151C89.3851 961.61 89.1744 962.192 89.1744 962.898V970H87.4698V962.528C87.4698 961.908 87.2686 961.409 86.8661 961.03C86.4637 960.646 85.9452 960.455 85.3107 960.455C84.8751 960.455 84.4679 960.571 84.0891 960.803C83.7151 961.035 83.4121 961.357 83.18 961.768C82.9528 962.176 82.8391 962.647 82.8391 963.182V970H81.163ZM102.978 970.227C101.993 970.227 101.129 969.993 100.385 969.524C99.6467 969.055 99.069 968.4 98.6523 967.557C98.2404 966.714 98.0344 965.729 98.0344 964.602C98.0344 963.466 98.2404 962.474 98.6523 961.626C99.069 960.779 99.6467 960.121 100.385 959.652C101.129 959.183 101.993 958.949 102.978 958.949C103.962 958.949 104.824 959.183 105.563 959.652C106.306 960.121 106.884 960.779 107.296 961.626C107.712 962.474 107.921 963.466 107.921 964.602C107.921 965.729 107.712 966.714 107.296 967.557C106.884 968.4 106.306 969.055 105.563 969.524C104.824 969.993 103.962 970.227 102.978 970.227ZM102.978 968.722C103.726 968.722 104.341 968.53 104.824 968.146C105.307 967.763 105.665 967.259 105.897 966.634C106.129 966.009 106.245 965.331 106.245 964.602C106.245 963.873 106.129 963.194 105.897 962.564C105.665 961.934 105.307 961.425 104.824 961.037C104.341 960.649 103.726 960.455 102.978 960.455C102.23 960.455 101.614 960.649 101.131 961.037C100.648 961.425 100.291 961.934 100.059 962.564C99.8266 963.194 99.7106 963.873 99.7106 964.602C99.7106 965.331 99.8266 966.009 100.059 966.634C100.291 967.259 100.648 967.763 101.131 968.146C101.614 968.53 102.23 968.722 102.978 968.722ZM114.599 970.227C113.69 970.227 112.887 969.998 112.191 969.538C111.495 969.074 110.951 968.421 110.558 967.578C110.165 966.731 109.968 965.729 109.968 964.574C109.968 963.428 110.165 962.434 110.558 961.591C110.951 960.748 111.497 960.097 112.198 959.638C112.899 959.179 113.709 958.949 114.627 958.949C115.337 958.949 115.898 959.067 116.31 959.304C116.727 959.536 117.044 959.801 117.262 960.099C117.485 960.393 117.657 960.634 117.781 960.824H117.923V955.455H119.599V970H117.979V968.324H117.781C117.657 968.523 117.482 968.774 117.255 969.077C117.028 969.375 116.703 969.643 116.282 969.879C115.861 970.111 115.299 970.227 114.599 970.227ZM114.826 968.722C115.498 968.722 116.067 968.546 116.531 968.196C116.995 967.841 117.347 967.351 117.589 966.726C117.83 966.096 117.951 965.369 117.951 964.545C117.951 963.731 117.833 963.018 117.596 962.408C117.359 961.792 117.009 961.314 116.545 960.973C116.081 960.627 115.508 960.455 114.826 960.455C114.116 960.455 113.524 960.637 113.05 961.001C112.582 961.361 112.229 961.851 111.992 962.472C111.76 963.087 111.644 963.778 111.644 964.545C111.644 965.322 111.763 966.027 111.999 966.662C112.241 967.292 112.596 967.794 113.065 968.168C113.538 968.537 114.125 968.722 114.826 968.722ZM127.475 970.227C126.424 970.227 125.517 969.995 124.755 969.531C123.997 969.062 123.413 968.409 123.001 967.571C122.594 966.728 122.39 965.748 122.39 964.631C122.39 963.513 122.594 962.528 123.001 961.676C123.413 960.819 123.986 960.152 124.719 959.673C125.458 959.19 126.32 958.949 127.305 958.949C127.873 958.949 128.434 959.044 128.988 959.233C129.542 959.422 130.046 959.73 130.501 960.156C130.955 960.578 131.317 961.136 131.587 961.832C131.857 962.528 131.992 963.385 131.992 964.403V965.114H123.583V963.665H130.288C130.288 963.049 130.165 962.5 129.918 962.017C129.677 961.534 129.331 961.153 128.881 960.874C128.436 960.594 127.911 960.455 127.305 960.455C126.637 960.455 126.059 960.62 125.572 960.952C125.089 961.278 124.717 961.705 124.457 962.23C124.196 962.756 124.066 963.319 124.066 963.92V964.886C124.066 965.71 124.208 966.409 124.492 966.982C124.781 967.55 125.181 967.983 125.692 968.281C126.204 968.575 126.798 968.722 127.475 968.722C127.915 968.722 128.313 968.66 128.668 968.537C129.028 968.409 129.338 968.22 129.599 967.969C129.859 967.713 130.06 967.396 130.202 967.017L131.822 967.472C131.651 968.021 131.365 968.504 130.962 968.92C130.56 969.332 130.063 969.654 129.471 969.886C128.879 970.114 128.214 970.227 127.475 970.227ZM136.218 955.455V970H134.542V955.455H136.218ZM146.163 965.54V959.091H147.839V970H146.163V968.153H146.049C145.794 968.707 145.396 969.179 144.856 969.567C144.316 969.95 143.635 970.142 142.811 970.142C142.129 970.142 141.523 969.993 140.993 969.695C140.462 969.392 140.046 968.937 139.743 968.331C139.44 967.72 139.288 966.951 139.288 966.023V959.091H140.964V965.909C140.964 966.705 141.187 967.339 141.632 967.812C142.082 968.286 142.654 968.523 143.35 968.523C143.767 968.523 144.191 968.416 144.622 968.203C145.057 967.99 145.422 967.663 145.716 967.223C146.014 966.783 146.163 966.222 146.163 965.54ZM156.534 970V959.091H158.21V970H156.534ZM157.386 957.273C157.06 957.273 156.778 957.161 156.541 956.939C156.309 956.716 156.193 956.449 156.193 956.136C156.193 955.824 156.309 955.556 156.541 955.334C156.778 955.111 157.06 955 157.386 955C157.713 955 157.992 955.111 158.224 955.334C158.461 955.556 158.58 955.824 158.58 956.136C158.58 956.449 158.461 956.716 158.224 956.939C157.992 957.161 157.713 957.273 157.386 957.273ZM80.5868 998.091V983.091H82.2061V984.824H82.405C82.5281 984.634 82.6986 984.393 82.9164 984.099C83.1389 983.801 83.4561 983.536 83.8681 983.304C84.2847 983.067 84.8482 982.949 85.5584 982.949C86.477 982.949 87.2866 983.179 87.9874 983.638C88.6882 984.097 89.235 984.748 89.628 985.591C90.021 986.434 90.2175 987.428 90.2175 988.574C90.2175 989.729 90.021 990.731 89.628 991.578C89.235 992.421 88.6905 993.074 87.9945 993.538C87.2985 993.998 86.4959 994.227 85.5868 994.227C84.8861 994.227 84.325 994.111 83.9036 993.879C83.4822 993.643 83.1578 993.375 82.9306 993.077C82.7033 992.774 82.5281 992.523 82.405 992.324H82.263V998.091H80.5868ZM82.2346 988.545C82.2346 989.369 82.3553 990.096 82.5968 990.726C82.8382 991.351 83.191 991.841 83.655 992.196C84.119 992.546 84.6872 992.722 85.3596 992.722C86.0603 992.722 86.6451 992.537 87.1138 992.168C87.5873 991.794 87.9424 991.292 88.1792 990.662C88.4206 990.027 88.5414 989.322 88.5414 988.545C88.5414 987.778 88.423 987.087 88.1863 986.472C87.9542 985.851 87.6015 985.361 87.128 985.001C86.6593 984.637 86.0698 984.455 85.3596 984.455C84.6777 984.455 84.1048 984.627 83.6408 984.973C83.1768 985.314 82.8264 985.792 82.5897 986.408C82.3529 987.018 82.2346 987.731 82.2346 988.545ZM97.2061 994.227C96.2213 994.227 95.3572 993.993 94.6138 993.524C93.8752 993.055 93.2975 992.4 92.8809 991.557C92.4689 990.714 92.263 989.729 92.263 988.602C92.263 987.466 92.4689 986.474 92.8809 985.626C93.2975 984.779 93.8752 984.121 94.6138 983.652C95.3572 983.183 96.2213 982.949 97.2061 982.949C98.191 982.949 99.0527 983.183 99.7914 983.652C100.535 984.121 101.112 984.779 101.524 985.626C101.941 986.474 102.149 987.466 102.149 988.602C102.149 989.729 101.941 990.714 101.524 991.557C101.112 992.4 100.535 993.055 99.7914 993.524C99.0527 993.993 98.191 994.227 97.2061 994.227ZM97.2061 992.722C97.9542 992.722 98.5698 992.53 99.0527 992.146C99.5357 991.763 99.8932 991.259 100.125 990.634C100.357 990.009 100.473 989.331 100.473 988.602C100.473 987.873 100.357 987.194 100.125 986.564C99.8932 985.934 99.5357 985.425 99.0527 985.037C98.5698 984.649 97.9542 984.455 97.2061 984.455C96.458 984.455 95.8425 984.649 95.3596 985.037C94.8766 985.425 94.5191 985.934 94.2871 986.564C94.0551 987.194 93.9391 987.873 93.9391 988.602C93.9391 989.331 94.0551 990.009 94.2871 990.634C94.5191 991.259 94.8766 991.763 95.3596 992.146C95.8425 992.53 96.458 992.722 97.2061 992.722ZM104.708 998.091V983.091H106.327V984.824H106.526C106.649 984.634 106.82 984.393 107.037 984.099C107.26 983.801 107.577 983.536 107.989 983.304C108.406 983.067 108.969 982.949 109.68 982.949C110.598 982.949 111.408 983.179 112.108 983.638C112.809 984.097 113.356 984.748 113.749 985.591C114.142 986.434 114.339 987.428 114.339 988.574C114.339 989.729 114.142 990.731 113.749 991.578C113.356 992.421 112.812 993.074 112.116 993.538C111.42 993.998 110.617 994.227 109.708 994.227C109.007 994.227 108.446 994.111 108.025 993.879C107.603 993.643 107.279 993.375 107.052 993.077C106.824 992.774 106.649 992.523 106.526 992.324H106.384V998.091H104.708ZM106.356 988.545C106.356 989.369 106.476 990.096 106.718 990.726C106.959 991.351 107.312 991.841 107.776 992.196C108.24 992.546 108.808 992.722 109.481 992.722C110.181 992.722 110.766 992.537 111.235 992.168C111.708 991.794 112.064 991.292 112.3 990.662C112.542 990.027 112.662 989.322 112.662 988.545C112.662 987.778 112.544 987.087 112.307 986.472C112.075 985.851 111.723 985.361 111.249 985.001C110.78 984.637 110.191 984.455 109.481 984.455C108.799 984.455 108.226 984.627 107.762 984.973C107.298 985.314 106.948 985.792 106.711 986.408C106.474 987.018 106.356 987.731 106.356 988.545ZM116.895 994V983.091H118.515V984.739H118.628C118.827 984.199 119.187 983.761 119.708 983.425C120.229 983.089 120.816 982.92 121.469 982.92C121.592 982.92 121.746 982.923 121.931 982.928C122.116 982.932 122.255 982.939 122.35 982.949V984.653C122.293 984.639 122.163 984.618 121.959 984.589C121.76 984.556 121.55 984.54 121.327 984.54C120.797 984.54 120.323 984.651 119.907 984.874C119.495 985.091 119.168 985.394 118.927 985.783C118.69 986.166 118.572 986.604 118.572 987.097V994H116.895ZM127.547 994.256C126.856 994.256 126.228 994.125 125.665 993.865C125.102 993.6 124.654 993.219 124.323 992.722C123.991 992.22 123.825 991.614 123.825 990.903C123.825 990.278 123.949 989.772 124.195 989.384C124.441 988.991 124.77 988.683 125.182 988.46C125.594 988.238 126.048 988.072 126.546 987.963C127.048 987.849 127.552 987.759 128.058 987.693C128.721 987.608 129.259 987.544 129.671 987.501C130.087 987.454 130.39 987.376 130.58 987.267C130.774 987.158 130.871 986.969 130.871 986.699V986.642C130.871 985.941 130.679 985.397 130.296 985.009C129.917 984.62 129.342 984.426 128.57 984.426C127.77 984.426 127.142 984.601 126.688 984.952C126.233 985.302 125.914 985.676 125.729 986.074L124.138 985.506C124.422 984.843 124.801 984.327 125.274 983.957C125.753 983.583 126.273 983.323 126.837 983.176C127.405 983.025 127.964 982.949 128.513 982.949C128.863 982.949 129.266 982.991 129.72 983.077C130.18 983.157 130.622 983.325 131.048 983.581C131.479 983.837 131.837 984.223 132.121 984.739C132.405 985.255 132.547 985.946 132.547 986.812V994H130.871V992.523H130.786C130.672 992.759 130.483 993.013 130.218 993.283C129.952 993.553 129.6 993.782 129.159 993.972C128.719 994.161 128.182 994.256 127.547 994.256ZM127.803 992.75C128.466 992.75 129.024 992.62 129.479 992.359C129.938 992.099 130.284 991.763 130.516 991.351C130.753 990.939 130.871 990.506 130.871 990.051V988.517C130.8 988.602 130.644 988.68 130.402 988.751C130.165 988.818 129.891 988.877 129.578 988.929C129.271 988.976 128.97 989.019 128.676 989.057C128.387 989.09 128.153 989.118 127.973 989.142C127.538 989.199 127.13 989.291 126.752 989.419C126.378 989.542 126.075 989.729 125.843 989.98C125.615 990.226 125.502 990.562 125.502 990.989C125.502 991.571 125.717 992.011 126.148 992.31C126.584 992.603 127.135 992.75 127.803 992.75ZM138.078 994L134.754 983.091H136.515L138.873 991.443H138.987L141.317 983.091H143.106L145.407 991.415H145.521L147.879 983.091H149.64L146.317 994H144.669L142.282 985.619H142.112L139.726 994H138.078ZM153.419 990.023L153.39 987.949H153.731L158.504 983.091H160.578L155.493 988.233H155.351L153.419 990.023ZM151.856 994V979.455H153.532V994H151.856ZM158.788 994L154.527 988.602L155.72 987.438L160.919 994H158.788ZM162.735 994V983.091H164.411V994H162.735ZM163.588 981.273C163.261 981.273 162.979 981.161 162.742 980.939C162.51 980.716 162.394 980.449 162.394 980.136C162.394 979.824 162.51 979.556 162.742 979.334C162.979 979.111 163.261 979 163.588 979C163.914 979 164.194 979.111 164.426 979.334C164.662 979.556 164.781 979.824 164.781 980.136C164.781 980.449 164.662 980.716 164.426 980.939C164.194 981.161 163.914 981.273 163.588 981.273Z" fill="black"/>
<circle cx="284" cy="1186" r="75" fill="#D9D9D9"/>
<path d="M265.934 1173.73C265.934 1175.26 265.657 1176.59 265.104 1177.7C264.55 1178.82 263.79 1179.68 262.824 1180.29C261.858 1180.9 260.755 1181.2 259.514 1181.2C258.273 1181.2 257.17 1180.9 256.204 1180.29C255.238 1179.68 254.479 1178.82 253.925 1177.7C253.371 1176.59 253.094 1175.26 253.094 1173.73C253.094 1172.19 253.371 1170.87 253.925 1169.75C254.479 1168.63 255.238 1167.77 256.204 1167.16C257.17 1166.56 258.273 1166.26 259.514 1166.26C260.755 1166.26 261.858 1166.56 262.824 1167.16C263.79 1167.77 264.55 1168.63 265.104 1169.75C265.657 1170.87 265.934 1172.19 265.934 1173.73ZM264.23 1173.73C264.23 1172.47 264.019 1171.4 263.598 1170.54C263.181 1169.67 262.615 1169.02 261.9 1168.57C261.19 1168.13 260.395 1167.9 259.514 1167.9C258.633 1167.9 257.836 1168.13 257.121 1168.57C256.41 1169.02 255.845 1169.67 255.423 1170.54C255.006 1171.4 254.798 1172.47 254.798 1173.73C254.798 1174.99 255.006 1176.05 255.423 1176.92C255.845 1177.78 256.41 1178.44 257.121 1178.88C257.836 1179.33 258.633 1179.55 259.514 1179.55C260.395 1179.55 261.19 1179.33 261.9 1178.88C262.615 1178.44 263.181 1177.78 263.598 1176.92C264.019 1176.05 264.23 1174.99 264.23 1173.73ZM272.788 1181.23C271.879 1181.23 271.077 1181 270.381 1180.54C269.684 1180.07 269.14 1179.42 268.747 1178.58C268.354 1177.73 268.157 1176.73 268.157 1175.57C268.157 1174.43 268.354 1173.43 268.747 1172.59C269.14 1171.75 269.687 1171.1 270.388 1170.64C271.088 1170.18 271.898 1169.95 272.817 1169.95C273.527 1169.95 274.088 1170.07 274.5 1170.3C274.916 1170.54 275.234 1170.8 275.452 1171.1C275.674 1171.39 275.847 1171.63 275.97 1171.82H276.112V1166.45H277.788V1181H276.169V1179.32H275.97C275.847 1179.52 275.672 1179.77 275.444 1180.08C275.217 1180.37 274.893 1180.64 274.471 1180.88C274.05 1181.11 273.489 1181.23 272.788 1181.23ZM273.015 1179.72C273.688 1179.72 274.256 1179.55 274.72 1179.2C275.184 1178.84 275.537 1178.35 275.778 1177.73C276.02 1177.1 276.14 1176.37 276.14 1175.55C276.14 1174.73 276.022 1174.02 275.785 1173.41C275.549 1172.79 275.198 1172.31 274.734 1171.97C274.27 1171.63 273.697 1171.45 273.015 1171.45C272.305 1171.45 271.713 1171.64 271.24 1172C270.771 1172.36 270.418 1172.85 270.182 1173.47C269.95 1174.09 269.834 1174.78 269.834 1175.55C269.834 1176.32 269.952 1177.03 270.189 1177.66C270.43 1178.29 270.785 1178.79 271.254 1179.17C271.728 1179.54 272.315 1179.72 273.015 1179.72ZM281.318 1181V1166.45H282.994V1171.82H283.136C283.259 1171.63 283.43 1171.39 283.648 1171.1C283.87 1170.8 284.187 1170.54 284.599 1170.3C285.016 1170.07 285.579 1169.95 286.29 1169.95C287.208 1169.95 288.018 1170.18 288.719 1170.64C289.419 1171.1 289.966 1171.75 290.359 1172.59C290.752 1173.43 290.949 1174.43 290.949 1175.57C290.949 1176.73 290.752 1177.73 290.359 1178.58C289.966 1179.42 289.422 1180.07 288.726 1180.54C288.03 1181 287.227 1181.23 286.318 1181.23C285.617 1181.23 285.056 1181.11 284.635 1180.88C284.213 1180.64 283.889 1180.37 283.662 1180.08C283.434 1179.77 283.259 1179.52 283.136 1179.32H282.937V1181H281.318ZM282.966 1175.55C282.966 1176.37 283.086 1177.1 283.328 1177.73C283.569 1178.35 283.922 1178.84 284.386 1179.2C284.85 1179.55 285.418 1179.72 286.091 1179.72C286.791 1179.72 287.376 1179.54 287.845 1179.17C288.318 1178.79 288.674 1178.29 288.91 1177.66C289.152 1177.03 289.273 1176.32 289.273 1175.55C289.273 1174.78 289.154 1174.09 288.917 1173.47C288.685 1172.85 288.333 1172.36 287.859 1172C287.39 1171.64 286.801 1171.45 286.091 1171.45C285.409 1171.45 284.836 1171.63 284.372 1171.97C283.908 1172.31 283.558 1172.79 283.321 1173.41C283.084 1174.02 282.966 1174.73 282.966 1175.55ZM293.513 1181V1170.09H295.189V1181H293.513ZM294.365 1168.27C294.038 1168.27 293.756 1168.16 293.52 1167.94C293.288 1167.72 293.172 1167.45 293.172 1167.14C293.172 1166.82 293.288 1166.56 293.52 1166.33C293.756 1166.11 294.038 1166 294.365 1166C294.692 1166 294.971 1166.11 295.203 1166.33C295.44 1166.56 295.558 1166.82 295.558 1167.14C295.558 1167.45 295.44 1167.72 295.203 1167.94C294.971 1168.16 294.692 1168.27 294.365 1168.27ZM302.691 1181.23C301.706 1181.23 300.842 1180.99 300.098 1180.52C299.36 1180.06 298.782 1179.4 298.365 1178.56C297.953 1177.71 297.747 1176.73 297.747 1175.6C297.747 1174.47 297.953 1173.47 298.365 1172.63C298.782 1171.78 299.36 1171.12 300.098 1170.65C300.842 1170.18 301.706 1169.95 302.691 1169.95C303.675 1169.95 304.537 1170.18 305.276 1170.65C306.019 1171.12 306.597 1171.78 307.009 1172.63C307.425 1173.47 307.634 1174.47 307.634 1175.6C307.634 1176.73 307.425 1177.71 307.009 1178.56C306.597 1179.4 306.019 1180.06 305.276 1180.52C304.537 1180.99 303.675 1181.23 302.691 1181.23ZM302.691 1179.72C303.439 1179.72 304.054 1179.53 304.537 1179.15C305.02 1178.76 305.378 1178.26 305.61 1177.63C305.842 1177.01 305.958 1176.33 305.958 1175.6C305.958 1174.87 305.842 1174.19 305.61 1173.56C305.378 1172.93 305.02 1172.43 304.537 1172.04C304.054 1171.65 303.439 1171.45 302.691 1171.45C301.942 1171.45 301.327 1171.65 300.844 1172.04C300.361 1172.43 300.003 1172.93 299.771 1173.56C299.539 1174.19 299.423 1174.87 299.423 1175.6C299.423 1176.33 299.539 1177.01 299.771 1177.63C300.003 1178.26 300.361 1178.76 300.844 1179.15C301.327 1179.53 301.942 1179.72 302.691 1179.72ZM301.923 1168.61L303.656 1165.32H305.617L303.401 1168.61H301.923ZM310.192 1181V1170.09H311.812V1171.74H311.925C312.124 1171.2 312.484 1170.76 313.005 1170.42C313.526 1170.09 314.113 1169.92 314.766 1169.92C314.889 1169.92 315.043 1169.92 315.228 1169.93C315.412 1169.93 315.552 1169.94 315.647 1169.95V1171.65C315.59 1171.64 315.46 1171.62 315.256 1171.59C315.057 1171.56 314.847 1171.54 314.624 1171.54C314.094 1171.54 313.62 1171.65 313.204 1171.87C312.792 1172.09 312.465 1172.39 312.224 1172.78C311.987 1173.17 311.868 1173.6 311.868 1174.1V1181H310.192ZM229.528 1205V1203.72L235.721 1195.77V1195.65H229.727V1194.09H237.881V1195.43L231.858 1203.32V1203.44H238.079V1205H229.528ZM243.871 1205.26C243.18 1205.26 242.553 1205.13 241.989 1204.87C241.426 1204.6 240.978 1204.22 240.647 1203.72C240.315 1203.22 240.15 1202.61 240.15 1201.9C240.15 1201.28 240.273 1200.77 240.519 1200.38C240.765 1199.99 241.094 1199.68 241.506 1199.46C241.918 1199.24 242.373 1199.07 242.87 1198.96C243.372 1198.85 243.876 1198.76 244.383 1198.69C245.046 1198.61 245.583 1198.54 245.995 1198.5C246.412 1198.45 246.715 1198.38 246.904 1198.27C247.098 1198.16 247.195 1197.97 247.195 1197.7V1197.64C247.195 1196.94 247.003 1196.4 246.62 1196.01C246.241 1195.62 245.666 1195.43 244.894 1195.43C244.094 1195.43 243.466 1195.6 243.012 1195.95C242.557 1196.3 242.238 1196.68 242.053 1197.07L240.462 1196.51C240.746 1195.84 241.125 1195.33 241.599 1194.96C242.077 1194.58 242.598 1194.32 243.161 1194.18C243.729 1194.02 244.288 1193.95 244.837 1193.95C245.188 1193.95 245.59 1193.99 246.045 1194.08C246.504 1194.16 246.947 1194.33 247.373 1194.58C247.804 1194.84 248.161 1195.22 248.445 1195.74C248.729 1196.25 248.871 1196.95 248.871 1197.81V1205H247.195V1203.52H247.11C246.996 1203.76 246.807 1204.01 246.542 1204.28C246.277 1204.55 245.924 1204.78 245.483 1204.97C245.043 1205.16 244.506 1205.26 243.871 1205.26ZM244.127 1203.75C244.79 1203.75 245.349 1203.62 245.803 1203.36C246.262 1203.1 246.608 1202.76 246.84 1202.35C247.077 1201.94 247.195 1201.51 247.195 1201.05V1199.52C247.124 1199.6 246.968 1199.68 246.726 1199.75C246.49 1199.82 246.215 1199.88 245.903 1199.93C245.595 1199.98 245.294 1200.02 245.001 1200.06C244.712 1200.09 244.477 1200.12 244.297 1200.14C243.862 1200.2 243.455 1200.29 243.076 1200.42C242.702 1200.54 242.399 1200.73 242.167 1200.98C241.939 1201.23 241.826 1201.56 241.826 1201.99C241.826 1202.57 242.041 1203.01 242.472 1203.31C242.908 1203.6 243.459 1203.75 244.127 1203.75ZM251.931 1205V1194.09H253.55V1195.8H253.692C253.919 1195.21 254.286 1194.76 254.793 1194.44C255.299 1194.11 255.908 1193.95 256.618 1193.95C257.338 1193.95 257.937 1194.11 258.415 1194.44C258.898 1194.76 259.274 1195.21 259.544 1195.8H259.658C259.937 1195.23 260.356 1194.78 260.915 1194.45C261.474 1194.12 262.144 1193.95 262.925 1193.95C263.9 1193.95 264.698 1194.25 265.318 1194.87C265.939 1195.47 266.249 1196.42 266.249 1197.7V1205H264.573V1197.7C264.573 1196.89 264.352 1196.32 263.912 1195.97C263.472 1195.63 262.953 1195.45 262.357 1195.45C261.59 1195.45 260.995 1195.69 260.574 1196.15C260.153 1196.61 259.942 1197.19 259.942 1197.9V1205H258.237V1197.53C258.237 1196.91 258.036 1196.41 257.634 1196.03C257.231 1195.65 256.713 1195.45 256.078 1195.45C255.643 1195.45 255.235 1195.57 254.857 1195.8C254.483 1196.03 254.18 1196.36 253.948 1196.77C253.72 1197.18 253.607 1197.65 253.607 1198.18V1205H251.931ZM273.745 1205.23C272.76 1205.23 271.896 1204.99 271.153 1204.52C270.414 1204.06 269.837 1203.4 269.42 1202.56C269.008 1201.71 268.802 1200.73 268.802 1199.6C268.802 1198.47 269.008 1197.47 269.42 1196.63C269.837 1195.78 270.414 1195.12 271.153 1194.65C271.896 1194.18 272.76 1193.95 273.745 1193.95C274.73 1193.95 275.592 1194.18 276.33 1194.65C277.074 1195.12 277.651 1195.78 278.063 1196.63C278.48 1197.47 278.688 1198.47 278.688 1199.6C278.688 1200.73 278.48 1201.71 278.063 1202.56C277.651 1203.4 277.074 1204.06 276.33 1204.52C275.592 1204.99 274.73 1205.23 273.745 1205.23ZM273.745 1203.72C274.493 1203.72 275.109 1203.53 275.592 1203.15C276.075 1202.76 276.432 1202.26 276.664 1201.63C276.896 1201.01 277.012 1200.33 277.012 1199.6C277.012 1198.87 276.896 1198.19 276.664 1197.56C276.432 1196.93 276.075 1196.43 275.592 1196.04C275.109 1195.65 274.493 1195.45 273.745 1195.45C272.997 1195.45 272.382 1195.65 271.899 1196.04C271.416 1196.43 271.058 1196.93 270.826 1197.56C270.594 1198.19 270.478 1198.87 270.478 1199.6C270.478 1200.33 270.594 1201.01 270.826 1201.63C271.058 1202.26 271.416 1202.76 271.899 1203.15C272.382 1203.53 272.997 1203.72 273.745 1203.72ZM272.978 1192.61L274.711 1189.32H276.671L274.455 1192.61H272.978ZM283.347 1205L280.024 1194.09H281.785L284.143 1202.44H284.257L286.586 1194.09H288.376L290.677 1202.41H290.791L293.149 1194.09H294.91L291.586 1205H289.938L287.552 1196.62H287.382L284.995 1205H283.347ZM297.126 1205V1194.09H298.802V1205H297.126ZM297.978 1192.27C297.651 1192.27 297.37 1192.16 297.133 1191.94C296.901 1191.72 296.785 1191.45 296.785 1191.14C296.785 1190.82 296.901 1190.56 297.133 1190.33C297.37 1190.11 297.651 1190 297.978 1190C298.305 1190 298.584 1190.11 298.816 1190.33C299.053 1190.56 299.171 1190.82 299.171 1191.14C299.171 1191.45 299.053 1191.72 298.816 1191.94C298.584 1192.16 298.305 1192.27 297.978 1192.27ZM306.446 1205.23C305.395 1205.23 304.488 1205 303.726 1204.53C302.968 1204.06 302.383 1203.41 301.971 1202.57C301.564 1201.73 301.361 1200.75 301.361 1199.63C301.361 1198.51 301.564 1197.53 301.971 1196.68C302.383 1195.82 302.956 1195.15 303.69 1194.67C304.429 1194.19 305.291 1193.95 306.275 1193.95C306.844 1193.95 307.405 1194.04 307.959 1194.23C308.513 1194.42 309.017 1194.73 309.471 1195.16C309.926 1195.58 310.288 1196.14 310.558 1196.83C310.828 1197.53 310.963 1198.39 310.963 1199.4V1200.11H302.554V1198.66H309.258C309.258 1198.05 309.135 1197.5 308.889 1197.02C308.648 1196.53 308.302 1196.15 307.852 1195.87C307.407 1195.59 306.881 1195.45 306.275 1195.45C305.608 1195.45 305.03 1195.62 304.542 1195.95C304.059 1196.28 303.688 1196.7 303.427 1197.23C303.167 1197.76 303.037 1198.32 303.037 1198.92V1199.89C303.037 1200.71 303.179 1201.41 303.463 1201.98C303.752 1202.55 304.152 1202.98 304.663 1203.28C305.175 1203.57 305.769 1203.72 306.446 1203.72C306.886 1203.72 307.284 1203.66 307.639 1203.54C307.999 1203.41 308.309 1203.22 308.569 1202.97C308.83 1202.71 309.031 1202.4 309.173 1202.02L310.792 1202.47C310.622 1203.02 310.336 1203.5 309.933 1203.92C309.531 1204.33 309.033 1204.65 308.442 1204.89C307.85 1205.11 307.184 1205.23 306.446 1205.23ZM315.189 1198.44V1205H313.513V1194.09H315.132V1195.8H315.274C315.53 1195.24 315.918 1194.8 316.439 1194.46C316.96 1194.12 317.632 1193.95 318.456 1193.95C319.194 1193.95 319.841 1194.1 320.395 1194.4C320.949 1194.7 321.38 1195.16 321.687 1195.77C321.995 1196.37 322.149 1197.14 322.149 1198.07V1205H320.473V1198.18C320.473 1197.32 320.25 1196.66 319.805 1196.18C319.36 1195.7 318.749 1195.45 317.973 1195.45C317.438 1195.45 316.96 1195.57 316.538 1195.8C316.122 1196.03 315.792 1196.37 315.551 1196.82C315.309 1197.26 315.189 1197.8 315.189 1198.44ZM325.212 1205V1194.09H326.888V1205H325.212ZM326.064 1192.27C325.737 1192.27 325.456 1192.16 325.219 1191.94C324.987 1191.72 324.871 1191.45 324.871 1191.14C324.871 1190.82 324.987 1190.56 325.219 1190.33C325.456 1190.11 325.737 1190 326.064 1190C326.391 1190 326.67 1190.11 326.902 1190.33C327.139 1190.56 327.257 1190.82 327.257 1191.14C327.257 1191.45 327.139 1191.72 326.902 1191.94C326.67 1192.16 326.391 1192.27 326.064 1192.27ZM333.168 1205.26C332.477 1205.26 331.849 1205.13 331.286 1204.87C330.723 1204.6 330.275 1204.22 329.944 1203.72C329.612 1203.22 329.447 1202.61 329.447 1201.9C329.447 1201.28 329.57 1200.77 329.816 1200.38C330.062 1199.99 330.391 1199.68 330.803 1199.46C331.215 1199.24 331.67 1199.07 332.167 1198.96C332.669 1198.85 333.173 1198.76 333.68 1198.69C334.342 1198.61 334.88 1198.54 335.292 1198.5C335.708 1198.45 336.011 1198.38 336.201 1198.27C336.395 1198.16 336.492 1197.97 336.492 1197.7V1197.64C336.492 1196.94 336.3 1196.4 335.917 1196.01C335.538 1195.62 334.963 1195.43 334.191 1195.43C333.391 1195.43 332.763 1195.6 332.309 1195.95C331.854 1196.3 331.535 1196.68 331.35 1197.07L329.759 1196.51C330.043 1195.84 330.422 1195.33 330.895 1194.96C331.374 1194.58 331.894 1194.32 332.458 1194.18C333.026 1194.02 333.585 1193.95 334.134 1193.95C334.484 1193.95 334.887 1193.99 335.341 1194.08C335.801 1194.16 336.243 1194.33 336.67 1194.58C337.1 1194.84 337.458 1195.22 337.742 1195.74C338.026 1196.25 338.168 1196.95 338.168 1197.81V1205H336.492V1203.52H336.407C336.293 1203.76 336.104 1204.01 335.839 1204.28C335.573 1204.55 335.221 1204.78 334.78 1204.97C334.34 1205.16 333.803 1205.26 333.168 1205.26ZM333.424 1203.75C334.087 1203.75 334.645 1203.62 335.1 1203.36C335.559 1203.1 335.905 1202.76 336.137 1202.35C336.374 1201.94 336.492 1201.51 336.492 1201.05V1199.52C336.421 1199.6 336.265 1199.68 336.023 1199.75C335.787 1199.82 335.512 1199.88 335.199 1199.93C334.892 1199.98 334.591 1200.02 334.297 1200.06C334.009 1200.09 333.774 1200.12 333.594 1200.14C333.159 1200.2 332.751 1200.29 332.373 1200.42C331.999 1200.54 331.696 1200.73 331.464 1200.98C331.236 1201.23 331.123 1201.56 331.123 1201.99C331.123 1202.57 331.338 1203.01 331.769 1203.31C332.205 1203.6 332.756 1203.75 333.424 1203.75Z" fill="black"/>
</svg>
